<svg width="36" height="36" viewBox="0 0 36 36" fill="none" xmlns="http://www.w3.org/2000/svg">
<circle opacity="0.1" r="16" transform="matrix(-1 0 0 1 17.5 18)" fill="#007FFF"/>
<mask id="mask0_376_8517" style="mask-type:alpha" maskUnits="userSpaceOnUse" x="1" y="2" width="33" height="32">
<circle r="16" transform="matrix(-1 0 0 1 17.5 18)" fill="white"/>
</mask>
<g mask="url(#mask0_376_8517)">
<path d="M23.0331 18.2282C23.0331 17.6918 22.8663 17.1689 22.5598 16.7497C21.8701 15.8076 21.789 14.2074 21.8386 11.3902C21.9287 6.13427 13.6302 5.59786 13.2425 12.5486C13.1298 14.5725 11.6063 16.0285 11.9353 18.5257C12.0886 19.6977 13.8781 20.6082 15.6947 20.6082H20.8379C22.0504 20.6082 23.0331 19.5399 23.0331 18.2282Z" fill="#333846"/>
<path d="M15.8798 20.5409C14.55 20.2479 13.4592 19.3284 13.3375 18.4224C13.0084 15.9251 14.532 14.4692 14.6447 12.4453C14.816 9.36204 16.4748 7.75733 18.2643 7.3832C16.033 7.02709 13.4051 8.55969 13.1842 12.4813C13.0715 14.5052 11.548 15.9612 11.877 18.4584C12.0303 19.6304 13.8198 20.5409 15.6364 20.5409H15.8798Z" fill="#333846"/>
<path d="M19.7518 20.6086C21.0816 20.3156 22.1724 19.396 22.2941 18.49C22.6232 15.9928 21.0996 14.5368 20.9869 12.5129C20.8156 9.42967 19.1568 7.82496 17.3673 7.45082C19.5986 7.09472 22.2265 8.62731 22.4474 12.5489C22.5601 14.5729 24.0837 16.0288 23.7546 18.526C23.6013 19.698 21.8118 20.6086 19.9952 20.6086H19.7518Z" fill="#333846"/>
<path d="M22.9252 40.7261L24.4893 22.308C24.5028 21.9068 24.2234 21.7085 23.6599 21.5868L20.2251 20.8475C19.7834 20.7528 19.4678 20.3427 19.4723 19.8739L19.5084 16.9845C19.5084 16.3714 18.7556 15.8711 17.8226 15.8711C16.894 15.8711 15.9564 16.3173 15.9564 16.9304L15.8617 19.9685C15.8482 20.4103 15.5507 20.7889 15.1405 20.8926L11.9762 21.6904C11.3586 21.8572 10.9574 22.0465 10.9755 22.4477L13.4321 42.0243L22.9252 40.7261Z" fill="#F8B68F"/>
<path d="M8.15826 37.3993C8.15826 37.3993 8.22137 27.4555 9.3663 23.6465C9.64127 22.736 10.3174 22.0283 11.8996 21.7173L11.8004 22.1726C12.6794 22.2717 13.4953 23.2318 13.4096 24.192L11.3181 37.539C11.3001 37.6607 11.2415 37.7779 11.1558 37.8636C10.7862 38.2377 9.75396 39.2609 9.56013 39.2519L9.39786 39.288C8.52338 39.1888 8.12671 38.3414 8.15826 37.3993Z" fill="#FCA17E"/>
<path d="M12.0348 21.4875C11.9221 22.673 11.6066 26.0898 11.5435 26.9507C11.1558 32.0985 12.738 39.4053 13.1166 41.4923C13.1752 41.8079 13.4637 42.0197 13.7792 41.9792L22.8125 40.7351C23.0785 40.699 23.2858 40.4871 23.3219 40.2212C23.5923 38.1657 24.6426 29.6508 23.9439 25.6616C23.7907 24.7736 23.5022 22.4386 23.394 21.5055C23.367 21.2666 23.7952 21.3929 23.5653 21.3297L22.6998 21.0638L20.9148 20.7978C20.5722 20.7528 20.6624 20.9601 20.6489 21.3117C20.5993 22.6956 19.4138 23.3807 18.0074 23.4438C16.3215 23.5159 15.3299 22.4747 15.1451 20.906C15.109 20.613 14.2525 20.915 13.7792 21.0368L12.0348 21.4875Z" fill="#007FFF"/>
<path d="M12.526 32.2832L13.7972 25.9094C13.8828 24.9538 13.2157 21.9517 12.3412 21.8526L12.0752 21.4919C10.4931 21.803 9.64112 22.736 9.36616 23.6466C8.76664 25.6435 8.10853 28.8664 7.95527 31.9181C7.95527 31.9181 10.484 33.1937 12.526 32.2832Z" fill="#007FFF"/>
<path d="M21.3202 15.8473C20.9771 15.7735 20.8118 15.1888 20.9512 14.5414C21.0905 13.8941 21.4816 13.4291 21.8248 13.503C22.1679 13.5768 22.3332 14.1615 22.1938 14.8089C22.0545 15.4563 21.6634 15.9212 21.3202 15.8473Z" fill="#F8B68F"/>
<path d="M13.6861 14.8096C13.5468 14.1623 13.712 13.5776 14.0552 13.5037C14.3983 13.4299 14.7895 13.8948 14.9288 14.5422C15.0681 15.1896 14.9029 15.7742 14.5597 15.8481C14.2166 15.9219 13.8255 15.457 13.6861 14.8096Z" fill="#F8B68F"/>
<path d="M21.4331 14.6944C21.4782 15.1767 21.4782 15.321 21.3926 15.6996C21.1852 16.6192 20.3874 17.728 19.887 18.2194C19.3055 18.7828 18.8908 19.2336 18.0434 19.2336C17.7865 19.2336 17.5205 19.1795 17.2546 19.0983C16.8669 18.9271 16.5559 18.6251 16.1772 18.278C15.6589 17.8047 14.825 16.7138 14.5906 15.7988C14.4914 15.4201 14.4869 15.2804 14.5184 14.7936C14.5275 14.6809 14.5545 14.4375 14.55 14.3203C14.541 13.9957 14.4103 13.6937 14.4058 13.3962C14.3877 10.7142 15.4741 9.57375 17.9938 9.39795C20.3783 9.56473 21.4421 10.6916 21.5098 13.297C21.5188 13.5945 21.3971 13.9011 21.3971 14.2256C21.3881 14.3428 21.4241 14.5817 21.4331 14.6944Z" fill="#F8B68F"/>
<path d="M21.5951 10.8678C21.5726 10.5703 21.505 10.2638 21.4148 9.98432C21.2616 9.50651 21.0362 9.10533 20.7342 8.71768C20.3826 8.27142 19.9453 7.98744 19.4675 7.73051C19.2512 7.61331 18.9356 7.53217 18.6652 7.45104C18.4533 7.38793 18.3136 7.3699 18.1017 7.35187C18.0476 7.34736 18.0071 7.33835 17.944 7.35187C17.9034 7.36088 17.8403 7.34736 17.8313 7.34736C17.5698 7.33835 17.2723 7.38342 17.0019 7.4285C16.781 7.46907 16.5962 7.52767 16.3933 7.59979C16.2761 7.64036 16.1634 7.726 16.0508 7.77558C15.8344 7.87475 15.6631 7.99195 15.4738 8.13169C14.4776 8.86643 14.2161 9.66428 14.2161 11.7423C14.2161 12.2607 14.2297 11.9587 14.2747 12.8512C14.2838 13.0495 14.3514 13.4327 14.3514 13.4327C14.3739 13.3064 14.3784 13.1306 14.3874 12.9999C14.4776 11.873 14.6579 11.6566 15.1627 11.2149C15.5324 10.8904 16.0553 10.079 16.1995 9.795C16.2897 9.6192 16.1544 9.51102 16.1634 9.4389C16.1634 9.4389 16.1229 9.75443 16.1995 9.795C16.4294 9.91671 17.2903 9.92572 17.7186 9.87163C19.2376 9.68682 19.6749 9.83106 20.3059 10.3945C20.7116 10.7551 21.2976 11.3637 21.3517 11.7017C21.505 12.6348 21.5771 13.2343 21.5771 13.2343C21.6132 12.5852 21.6672 11.7784 21.5951 10.8678Z" fill="#333846"/>
<path d="M26.3916 36.8C26.3916 36.8 26.2699 26.8742 25.0979 23.0878C24.8184 22.1818 23.8177 21.0999 22.6548 21.6454C21.7758 21.7535 20.9644 22.7272 21.0591 23.6783L23.4301 38.1342C23.4301 38.1342 24.1243 39.2206 25.0032 39.1124C25.8777 38.9997 26.4277 37.7376 26.3916 36.8Z" fill="#FCA17E"/>
<path d="M22.1272 33.0044C23.8447 33.5724 26.734 32.2291 26.734 32.2291C26.5763 29.0647 25.7649 25.2288 25.1023 23.0876C24.8228 22.1816 24.372 21.4829 23.5066 21.3071C23.0829 21.3612 21.397 21.208 20.9598 22.6594C20.4955 24.21 21.2978 27.3834 21.3474 27.8747L22.1272 33.0044Z" fill="#007FFF"/>
<path fill-rule="evenodd" clip-rule="evenodd" d="M13.2911 26.8128C13.2492 26.9282 13.3087 27.0557 13.424 27.0976C17.3995 28.5433 21.3982 27.7022 22.9158 27.0951C23.0298 27.0495 23.0852 26.9202 23.0396 26.8063C22.994 26.6923 22.8647 26.6369 22.7508 26.6825C21.3055 27.2606 17.4227 28.0788 13.5759 26.6799C13.4606 26.638 13.3331 26.6975 13.2911 26.8128ZM13.2911 28.5907C13.2492 28.706 13.3087 28.8335 13.424 28.8754C17.3995 30.3211 21.3982 29.48 22.9158 28.8729C23.0298 28.8274 23.0852 28.698 23.0396 28.5841C22.9941 28.4701 22.8647 28.4147 22.7508 28.4603C21.3055 29.0384 17.4227 29.8566 13.5759 28.4578C13.4606 28.4158 13.3331 28.4753 13.2911 28.5907ZM13.424 30.6532C13.3087 30.6113 13.2492 30.4838 13.2911 30.3684C13.3331 30.2531 13.4606 30.1936 13.5759 30.2355C17.4227 31.6344 21.3055 30.8162 22.7508 30.2381C22.8647 30.1925 22.9941 30.2479 23.0396 30.3619C23.0852 30.4758 23.0298 30.6051 22.9158 30.6507C21.3982 31.2578 17.3995 32.0989 13.424 30.6532Z" fill="#B2D9FF"/>
</g>
</svg>
