<svg width="36" height="37" viewBox="0 0 36 37" fill="none" xmlns="http://www.w3.org/2000/svg">
<circle r="16" transform="matrix(-1 0 0 1 17.5 18.5)" fill="#E5F2FF"/>
<path d="M26.5297 20.0575C26.3007 21.5026 25.3689 23.761 23.2013 25.4863C23.1224 25.5495 23.0395 25.6127 22.9565 25.6758C22.8736 25.739 22.7868 25.8022 22.696 25.8614C20.1691 27.6223 18.3411 27.5552 16.4894 27.4525C15.9682 27.4249 14.6337 27.3341 13.3821 26.809C13.2755 26.7656 13.1729 26.7182 13.0663 26.6669C12.9715 26.6195 12.8767 26.5721 12.782 26.5168C12.0239 26.0865 10.0577 23.8755 9.72212 22.8884C9.38652 21.8974 9.42995 19.7259 9.42995 19.7259C7.78354 11.4267 12.7859 9.5158 12.7859 9.5158C14.4758 8.32344 17.4211 8.44583 19.3716 8.58797C21.6576 8.75379 23.9831 9.69742 24.4766 10.337C26.3125 12.7257 26.7745 18.5059 26.5297 20.0575Z" fill="#F39930"/>
<path d="M20.9309 19.418C20.8322 19.3232 18.7831 16.0502 18.7831 16.0502L16.8682 16.1212L14.1558 20.2432L20.9309 19.418Z" fill="#FBE0C1"/>
<path d="M17.8672 21.0012C17.192 21.0091 16.6827 20.1089 16.7301 19.0942L17.0223 13.089C17.046 12.631 17.3934 12.2757 17.8001 12.2717C18.2067 12.2678 18.5621 12.6113 18.5897 13.0693L18.9727 19.0627C19.0398 20.0774 18.5423 20.9894 17.8672 21.0012Z" fill="#FBE0C1"/>
<path d="M23.2013 25.4903C23.1223 25.5535 23.0394 25.6166 22.9565 25.6798C22.8736 25.743 22.7867 25.8061 22.6959 25.8654C20.169 27.6263 18.341 27.5592 16.4893 27.4565C15.9681 27.4289 14.6336 27.3381 13.3821 26.8129C13.2755 26.7695 13.1728 26.7221 13.0662 26.6708C12.8175 26.2918 12.6043 25.8575 12.4424 25.3561C12.4424 25.3561 12.8135 21.8698 13.3821 21.092C13.5123 20.9104 13.7848 20.5985 14.1559 20.2431C14.7916 19.6311 15.7234 18.8889 16.7578 18.4743C17.4527 18.194 18.191 18.0637 18.9175 18.2177C19.2136 18.2808 19.5018 18.3874 19.79 18.5533C20.1967 18.7862 20.5797 19.0823 20.9271 19.4219C20.9271 19.4219 20.931 19.4219 20.931 19.4258C22.5814 21.0209 23.5211 23.5991 23.2013 25.4903Z" fill="#FBE0C1"/>
<path d="M20.6902 17.0095C20.6902 17.0095 20.6823 16.1488 21.5904 15.7579C22.4985 15.3671 23.1697 16.1251 23.4263 16.7924C23.4263 16.7924 23.3513 17.6531 22.688 17.7557C22.0247 17.8584 20.6941 17.582 20.6902 17.0095Z" fill="#492E0E"/>
<path d="M21.93 16.4726C21.93 16.6582 21.8037 16.8082 21.6418 16.8082C21.4799 16.8082 21.3496 16.6622 21.3496 16.4766C21.3496 16.291 21.476 16.141 21.6378 16.141C21.7958 16.137 21.93 16.2871 21.93 16.4726Z" fill="#FEFAF5"/>
<path d="M14.5152 17.199C14.5152 17.199 14.5705 16.3422 13.6861 15.8803C12.8017 15.4183 12.091 16.1211 11.7988 16.7647C11.7988 16.7647 11.8265 17.6293 12.4819 17.7833C13.1373 17.9373 14.4797 17.7715 14.5152 17.199Z" fill="#492E0E"/>
<path d="M13.6029 16.9269C13.7643 16.9253 13.8936 16.7738 13.8918 16.5885C13.89 16.4031 13.7577 16.2541 13.5964 16.2557C13.435 16.2573 13.3057 16.4088 13.3075 16.5942C13.3093 16.7795 13.4416 16.9285 13.6029 16.9269Z" fill="#FEFAF5"/>
<path d="M17.259 23.0503C17.259 23.0503 15.4942 22.0869 15.4665 21.7553C15.4389 21.4276 14.9217 19.797 16.1219 19.4377C17.3262 19.0784 19.8372 19.11 20.1728 20.2826C20.5084 21.4592 19.8491 22.1541 19.8491 22.1541C19.8491 22.1541 17.9184 23.4767 17.259 23.0503Z" fill="#492E0E"/>
<path d="M23.4143 9.6145C23.4143 9.6145 24.5001 11.9005 24.6698 12.5125C24.8396 13.1245 25.4595 14.2813 25.3134 15.3355C25.1673 16.3896 25.3055 18.952 25.5029 20.0852C25.7003 21.2144 25.6174 21.7592 25.7635 22.4067C25.9096 23.0542 25.5858 23.5912 26.3913 24.519C27.1967 25.4468 28.4167 26.0983 29.0445 25.739C29.6762 25.3797 29.767 24.7401 29.6643 24.0215C29.5617 23.303 32.1991 21.1867 31.5595 19.1692C30.9199 17.1516 27.0664 11.0398 23.4143 9.6145Z" fill="#AA6B22"/>
<path d="M11.2855 12.9191C11.2855 12.9191 10.1563 15.1736 10.3221 16.662C10.488 18.1505 10.9854 19.485 10.6735 20.7879C10.3616 22.0908 10.405 24.7125 9.57197 25.6442C8.7389 26.58 6.78058 27.2354 6.26732 25.6719C5.75405 24.1084 4.11949 18.3203 4.69593 17.2701C5.27237 16.2198 5.41055 15.8013 5.88039 15.2209C6.35023 14.6406 9.22848 12.1492 9.60356 11.8452C9.97864 11.5412 11.8461 9.78425 11.9133 10.3133C11.9764 10.8424 11.2855 12.9191 11.2855 12.9191Z" fill="#AA6B22"/>
<path d="M13.5241 22.7502C13.5399 22.9911 13.5992 23.2437 13.7097 23.4727C13.8203 23.7017 13.9782 23.9149 14.1914 24.065C14.3138 24.1518 14.448 24.211 14.5823 24.2505C14.7402 24.294 14.9021 24.3137 15.0639 24.3098C15.3048 24.3058 15.5496 24.2624 15.7825 24.211C16.0155 24.1597 16.2445 24.0966 16.4458 24.0492C16.817 23.9663 17.1841 23.8873 17.5553 23.8044C17.6224 23.7886 17.6619 23.7254 17.6461 23.6583C17.6303 23.5912 17.5671 23.5517 17.5 23.5675C17.1289 23.6504 16.7617 23.7294 16.3905 23.8123C16.1063 23.8755 15.7983 23.9663 15.4982 24.0215C15.3482 24.0492 15.1982 24.065 15.056 24.0689C14.9139 24.0689 14.7757 24.0571 14.6454 24.0176C14.5349 23.986 14.4283 23.9386 14.3296 23.8676C14.1559 23.7452 14.0216 23.5714 13.9269 23.3701C13.8321 23.1687 13.7768 22.9476 13.765 22.7344C13.761 22.6673 13.7018 22.616 13.6347 22.6199C13.5715 22.6278 13.5202 22.6831 13.5241 22.7502Z" fill="#492E0E"/>
<path d="M21.3377 22.9515C21.3258 23.0541 21.3061 23.1647 21.2785 23.2673C21.2311 23.4253 21.164 23.5793 21.0731 23.7135C20.9823 23.8477 20.8718 23.9622 20.7375 24.0451C20.6388 24.1083 20.5322 24.1517 20.4217 24.1754C20.2559 24.2149 20.0782 24.2149 19.8926 24.1912C19.7071 24.1675 19.5136 24.1202 19.3241 24.0688C19.1188 24.0096 18.9174 23.9425 18.724 23.8872C18.7082 23.8833 18.6924 23.8793 18.6805 23.8754C18.3133 23.7727 17.9462 23.6701 17.579 23.5674C17.5158 23.5477 17.4487 23.5871 17.4289 23.6503C17.4092 23.7135 17.4487 23.7806 17.5119 23.8004C17.879 23.903 18.2462 24.0057 18.6134 24.1083C18.6292 24.1123 18.641 24.1162 18.6568 24.1202C18.8424 24.1754 19.0477 24.2426 19.257 24.3018C19.5175 24.3768 19.7939 24.44 20.0663 24.4479C20.2045 24.4518 20.3388 24.44 20.473 24.4084C20.6073 24.3768 20.7375 24.3255 20.8639 24.2465C21.0297 24.1438 21.164 24.0017 21.2706 23.8438C21.3772 23.6859 21.4561 23.5082 21.5074 23.3266C21.543 23.2081 21.5627 23.0857 21.5746 22.9673C21.5825 22.9002 21.5311 22.8409 21.464 22.833C21.4048 22.837 21.3456 22.8844 21.3377 22.9515Z" fill="#492E0E"/>
<path d="M17.4329 22.9159L17.429 23.6859C17.429 23.753 17.4842 23.8082 17.5474 23.8082C17.6145 23.8082 17.6698 23.753 17.6698 23.6898L17.6737 22.9199C17.6737 22.8528 17.6185 22.7975 17.5553 22.7975C17.4882 22.7936 17.4329 22.8488 17.4329 22.9159Z" fill="#492E0E"/>
<path d="M16.1101 24.1282L18.9568 24.2071L17.5315 23.7254L16.1101 24.1282Z" fill="#492E0E"/>
</svg>
