<svg width="24" height="24" viewBox="0 0 24 24" fill="none" xmlns="http://www.w3.org/2000/svg">
<path d="M12 21.9997C9.76667 21.9997 7.875 21.2247 6.325 19.6747C4.775 18.1247 4 16.233 4 13.9997C4 12.1163 4.55833 10.308 5.675 8.57466C6.79167 6.84132 8.325 5.32466 10.275 4.02466C10.6417 3.77466 11.0207 3.76199 11.412 3.98666C11.8033 4.21132 11.9993 4.54899 12 4.99966V6.29966C12 6.86632 12.196 7.34132 12.588 7.72466C12.98 8.10799 13.459 8.29966 14.025 8.29966C14.3083 8.29966 14.5793 8.23699 14.838 8.11166C15.0967 7.98632 15.3257 7.80732 15.525 7.57466C15.6583 7.40799 15.8293 7.30366 16.038 7.26166C16.2467 7.21966 16.4423 7.26566 16.625 7.39966C17.675 8.14966 18.5 9.10799 19.1 10.2747C19.7 11.4413 20 12.683 20 13.9997C20 16.233 19.225 18.1247 17.675 19.6747C16.125 21.2247 14.2333 21.9997 12 21.9997ZM6 13.9997C6 14.8663 6.175 15.6873 6.525 16.4627C6.875 17.238 7.375 17.917 8.025 18.4997C8.00833 18.4163 8 18.3413 8 18.2747V18.0497C8 17.5163 8.1 17.0163 8.3 16.5497C8.5 16.083 8.79167 15.658 9.175 15.2747L12 12.4997L14.825 15.2747C15.2083 15.658 15.5 16.083 15.7 16.5497C15.9 17.0163 16 17.5163 16 18.0497V18.2747C16 18.3413 15.9917 18.4163 15.975 18.4997C16.625 17.9163 17.125 17.237 17.475 16.4617C17.825 15.6863 18 14.8657 18 13.9997C18 13.1663 17.8457 12.3787 17.537 11.6367C17.2283 10.8947 16.7827 10.2323 16.2 9.64965C15.8667 9.86632 15.5167 10.029 15.15 10.1377C14.7833 10.2463 14.4083 10.3003 14.025 10.2997C12.9917 10.2997 12.0957 9.95799 11.337 9.27465C10.5783 8.59132 10.141 7.74966 10.025 6.74966C8.725 7.84966 7.729 9.02065 7.037 10.2627C6.345 11.5047 5.99933 12.7503 6 13.9997ZM12 15.2997L10.575 16.6997C10.3917 16.883 10.25 17.0913 10.15 17.3247C10.05 17.558 10 17.7997 10 18.0497C10 18.583 10.1957 19.0413 10.587 19.4247C10.9783 19.808 11.4493 19.9997 12 19.9997C12.55 19.9997 13.0207 19.808 13.412 19.4247C13.8033 19.0413 13.9993 18.583 14 18.0497C14 17.783 13.95 17.537 13.85 17.3117C13.75 17.0863 13.6083 16.8823 13.425 16.6997L12 15.2997Z" fill="#333846"/>
</svg>
