<svg width="68" height="39" viewBox="0 0 68 39" fill="none" xmlns="http://www.w3.org/2000/svg">
<rect x="2" y="1.5" width="64" height="36" rx="8" fill="white"/>
<path d="M33.5163 14.4768C33.3032 13.9587 33.5504 13.366 34.0685 13.1528C34.5866 12.9397 35.1793 13.187 35.3925 13.7051C35.6056 14.2232 35.3583 14.8159 34.8402 15.029C34.3221 15.2421 33.7294 14.9949 33.5163 14.4768Z" fill="#333846" fill-opacity="0.4"/>
<path d="M23.9442 25.7449H24.0569L24.1184 19.9763C24.0774 19.9558 24.0364 19.9251 24.0056 19.9046C21.5158 18.214 25.2557 12.3839 25.8602 11.472C26.7721 8.77727 30.1328 8.17275 35.5838 9.70967C38.0429 10.4064 38.7294 12.927 38.8933 13.8491L43.3094 15.2119C43.4528 15.2528 43.5963 15.2836 43.7602 15.3143C43.8217 15.3246 43.8934 15.3451 43.9549 15.3553C44.7643 15.5397 45.041 16.759 44.8258 19.1976C44.5082 22.7633 38.6474 23.5522 36.9055 23.7059V25.7449H37.0695C37.5306 25.7449 37.9097 26.124 37.9097 26.5851V29.2798C37.9097 29.7409 37.5306 30.12 37.0695 30.12H23.9442C23.4831 30.12 23.104 29.7409 23.104 29.2798V26.5851C23.104 26.1138 23.4728 25.7449 23.9442 25.7449ZM36.383 22.7428C38.3707 22.6403 43.586 21.8001 43.8319 19.1156C43.8729 18.6751 43.8832 18.3062 43.8934 17.9886C43.5963 18.1627 43.2377 18.2755 42.8483 18.2755C41.8442 18.2755 41.0347 17.589 41.0347 16.7488C41.0347 16.3492 41.2192 15.9803 41.5163 15.7139L38.2888 14.72L37.9711 14.6176L37.9404 14.2897C37.9404 14.259 37.6023 11.3183 35.2969 10.6728C32.5099 9.88386 27.6943 8.99244 26.7721 11.8409L26.7516 11.9126L26.7106 11.9741C25.4196 13.8901 23.186 18.1525 24.5487 19.0747C25.9012 19.9968 28.2168 20.0378 29.4668 19.9763C30.0099 19.9558 30.4607 19.5562 30.5632 19.0234C30.8091 17.7222 31.1267 15.3246 30.3992 13.8286L31.3009 13.3983C32.1103 15.0684 31.8747 17.4865 31.5468 19.2181C31.3521 20.212 30.5222 20.9395 29.5078 20.9804C28.1963 21.0419 26.4955 20.9804 25.0917 20.4681L25.0303 25.7551H35.9014V22.7735L36.383 22.7428Z" fill="#333846" fill-opacity="0.4"/>
<rect x="2" y="1.5" width="64" height="36" rx="8" stroke="#EBEBED" stroke-width="3"/>
</svg>
