<svg width="68" height="39" viewBox="0 0 68 39" fill="none" xmlns="http://www.w3.org/2000/svg">
<rect x="2" y="1.5" width="64" height="36" rx="8" fill="white"/>
<path d="M31.1309 16.3453C31.7862 16.3453 32.3173 15.8142 32.3173 15.159C32.3173 14.5037 31.7862 13.9726 31.1309 13.9726C30.4757 13.9726 29.9446 14.5037 29.9446 15.159C29.9446 15.8142 30.4757 16.3453 31.1309 16.3453Z" fill="#333846" fill-opacity="0.4"/>
<path d="M37.2229 18.0775C38.835 17.8517 39.9588 16.3618 39.733 14.7497C39.5072 13.1376 38.0173 12.0138 36.4053 12.2396C34.7932 12.4654 33.6694 13.9553 33.8951 15.5674C34.1209 17.1794 35.6108 18.3033 37.2229 18.0775Z" fill="#333846" fill-opacity="0.4"/>
<path d="M36.9786 16.3334C37.6274 16.2425 38.0797 15.6429 37.9889 14.994C37.898 14.3452 37.2983 13.8928 36.6495 13.9837C36.0006 14.0746 35.5483 14.6743 35.6392 15.3231C35.73 15.972 36.3297 16.4243 36.9786 16.3334Z" fill="white"/>
<path d="M43.2318 10.3596C42.0238 9.33502 40.2982 9.45365 39.4354 9.60465C38.2922 8.28886 36.6097 7.47998 34.8086 7.47998H33.1261C31.3358 7.47998 29.6641 8.28886 28.5209 9.59386C27.6365 9.45365 25.9648 9.35659 24.7677 10.3596C23.0852 11.7725 20.0977 18.9553 23.6784 19.7103C24.4873 19.8829 25.0481 19.9583 25.4256 19.9691C25.5334 20.8751 25.8246 21.7487 26.31 22.536C26.8923 23.5174 27.7012 24.294 28.6611 24.8224L28.4885 26.8069H27.5179C26.9786 26.8069 26.5364 27.2491 26.5364 27.7883V30.5385C26.5364 31.0778 26.9786 31.52 27.5179 31.52H41.1179C41.6572 31.52 42.0993 31.0778 42.0993 30.5385V27.7883C42.0993 27.2491 41.6572 26.8069 41.1179 26.8069H39.759L39.5648 24.6607C40.4061 24.143 41.1179 23.4204 41.6464 22.536C42.1209 21.7487 42.4121 20.8643 42.5308 19.9691C42.9082 19.9583 43.4798 19.8829 44.3319 19.6995C47.9017 18.9445 44.9035 11.7725 43.2318 10.3596ZM25.5011 18.9877C25.5011 18.9877 24.0559 19.1171 23.3764 18.4376C22.643 17.7043 22.6969 15.9031 23.7107 13.703C24.7353 11.5028 25.2314 10.2518 27.9277 10.3812C27.3669 11.7077 27.0865 13.002 26.5364 14.9325C26.0835 16.5179 25.8138 17.2189 25.5011 18.9877ZM38.6697 26.8069H29.5563L29.6965 25.2754C29.9337 25.3509 30.1818 25.4264 30.4299 25.4695C30.8613 25.5558 31.3142 25.599 31.7564 25.599H36.1891C36.6313 25.599 37.0843 25.5558 37.5157 25.4695C37.8608 25.394 38.1951 25.297 38.5187 25.1783L38.6697 26.8069ZM40.7296 21.9967C39.9639 23.2802 38.7452 24.143 37.3 24.445C36.9333 24.5204 36.5558 24.5528 36.1891 24.5528H34.3988V20.2711H34.5713C34.8841 20.2711 35.1645 20.0662 35.2724 19.7642L35.6175 18.7181C35.7361 18.3729 35.4773 18.0062 35.0998 18.0062H32.8889C32.5222 18.0062 32.2525 18.3729 32.3712 18.7181L32.7163 19.7642C32.8134 20.0662 33.0938 20.2711 33.4173 20.2711H33.5899V24.5528H31.7564C31.379 24.5528 31.0015 24.5204 30.6456 24.445C29.2004 24.1538 27.9816 23.2802 27.2159 21.9967C26.4286 20.6917 26.2345 19.0955 26.6659 17.6396L28.2944 12.1607C28.9199 10.0253 30.9152 8.53692 33.1477 8.53692H34.8302C37.0519 8.53692 39.0472 10.0253 39.6835 12.1607L41.312 17.6396C41.7219 19.0955 41.517 20.6917 40.7296 21.9967ZM44.5799 18.4269C43.9005 19.1063 42.4553 18.9769 42.4553 18.9769C42.1425 17.2081 41.8621 16.5179 41.4091 14.9217C40.8591 12.9912 40.5786 11.7077 40.0178 10.3704C42.7141 10.241 43.221 11.492 44.2456 13.6922C45.2702 15.9031 45.3133 17.6935 44.5799 18.4269Z" fill="#333846" fill-opacity="0.4"/>
<rect x="2" y="1.5" width="64" height="36" rx="8" stroke="#EBEBED" stroke-width="3"/>
</svg>
