<svg width="68" height="39" viewBox="0 0 68 39" fill="none" xmlns="http://www.w3.org/2000/svg">
<rect x="2" y="1.5" width="64" height="36" rx="8" fill="white"/>
<path d="M31.1358 16.3506C31.7899 16.3506 32.3202 15.8203 32.3202 15.1662C32.3202 14.5121 31.7899 13.9818 31.1358 13.9818C30.4817 13.9818 29.9514 14.5121 29.9514 15.1662C29.9514 15.8203 30.4817 16.3506 31.1358 16.3506Z" fill="#333846" fill-opacity="0.4"/>
<path d="M36.9736 16.3387C37.6214 16.248 38.073 15.6493 37.9822 15.0015C37.8915 14.3537 37.2928 13.9022 36.6451 13.9929C35.9973 14.0836 35.5457 14.6823 35.6364 15.3301C35.7272 15.9778 36.3258 16.4294 36.9736 16.3387Z" fill="#333846" fill-opacity="0.4"/>
<path d="M43.2165 10.3748C42.0105 9.35195 40.2878 9.47039 39.4264 9.62113C38.2851 8.30754 36.6054 7.5 34.8073 7.5H33.1276C31.3403 7.5 29.6714 8.30754 28.5301 9.61036C27.6472 9.47039 25.9782 9.37349 24.7831 10.3748C23.1034 11.7853 20.1209 18.9563 23.6956 19.71C24.5031 19.8822 25.063 19.9576 25.4399 19.9684C25.5476 20.8728 25.8383 21.745 26.3228 22.531C26.9042 23.5108 27.7118 24.286 28.67 24.8136L28.4978 26.7948H27.5287C26.9904 26.7948 26.5489 27.2362 26.5489 27.7746V30.5202C26.5489 31.0585 26.9904 31.5 27.5287 31.5H41.1061C41.6445 31.5 42.0859 31.0585 42.0859 30.5202V27.7746C42.0859 27.2362 41.6445 26.7948 41.1061 26.7948H39.7494L39.5556 24.6521C40.3955 24.1353 41.1061 23.4139 41.6337 22.531C42.1074 21.745 42.3982 20.862 42.5166 19.9684C42.8934 19.9576 43.4641 19.8822 44.3147 19.6992C47.8786 18.9455 44.8854 11.7853 43.2165 10.3748ZM25.5153 18.9886C25.5153 18.9886 24.0725 19.1178 23.3941 18.4394C22.662 17.7073 22.7158 15.9092 23.7279 13.7127C24.7508 11.5162 25.2461 10.2672 27.9379 10.3964C27.378 11.7207 27.098 13.0128 26.5489 14.9401C26.0967 16.5229 25.8275 17.2227 25.5153 18.9886ZM38.662 26.7948H29.5637L29.7037 25.2658C29.9406 25.3412 30.1882 25.4166 30.4358 25.4596C30.8665 25.5458 31.3188 25.5888 31.7602 25.5888H36.1855C36.627 25.5888 37.0792 25.5458 37.5099 25.4596C37.8544 25.3843 38.1882 25.2873 38.5112 25.1689L38.662 26.7948ZM40.7185 21.9926C39.954 23.2739 38.7373 24.1353 37.2945 24.4367C36.9284 24.5121 36.5516 24.5444 36.1855 24.5444H34.3982V20.2699H34.5704C34.8827 20.2699 35.1626 20.0653 35.2703 19.7638L35.6149 18.7194C35.7333 18.3748 35.4749 18.0087 35.098 18.0087H32.8908C32.5247 18.0087 32.2555 18.3748 32.3739 18.7194L32.7185 19.7638C32.8154 20.0653 33.0953 20.2699 33.4184 20.2699H33.5906V24.5444H31.7602C31.3834 24.5444 31.0065 24.5121 30.6512 24.4367C29.2084 24.146 27.9917 23.2739 27.2272 21.9926C26.4412 20.6898 26.2474 19.0962 26.6781 17.6427L28.3039 12.1729C28.9284 10.0411 30.9204 8.55518 33.1492 8.55518H34.8288C37.0469 8.55518 39.0388 10.0411 39.6741 12.1729L41.2999 17.6427C41.7091 19.0962 41.5045 20.6898 40.7185 21.9926ZM44.5624 18.4287C43.884 19.107 42.4412 18.9778 42.4412 18.9778C42.129 17.212 41.849 16.5229 41.3968 14.9293C40.8477 13.002 40.5677 11.7207 40.0079 10.3856C42.6996 10.2564 43.2057 11.5054 44.2286 13.7019C45.2515 15.9092 45.2945 17.6965 44.5624 18.4287Z" fill="#333846" fill-opacity="0.4"/>
<rect x="2" y="1.5" width="64" height="36" rx="8" stroke="#EBEBED" stroke-width="3"/>
</svg>
