<svg width="68" height="39" viewBox="0 0 68 39" fill="none" xmlns="http://www.w3.org/2000/svg">
<rect x="2" y="1.5" width="64" height="36" rx="8" fill="white"/>
<path d="M34.4837 14.4768C34.6968 13.9587 34.4496 13.366 33.9315 13.1528C33.4134 12.9397 32.8207 13.187 32.6075 13.7051C32.3944 14.2232 32.6417 14.8159 33.1598 15.029C33.6779 15.2421 34.2706 14.9949 34.4837 14.4768Z" fill="#333846" fill-opacity="0.4"/>
<path d="M44.0558 25.7449H43.9431L43.8816 19.9763C43.9226 19.9558 43.9636 19.9251 43.9944 19.9046C46.4842 18.214 42.7443 12.3839 42.1398 11.472C41.2279 8.77728 37.8672 8.17276 32.4162 9.70968C29.9571 10.4064 29.2706 12.927 29.1067 13.8491L24.6906 15.2119C24.5472 15.2528 24.4037 15.2836 24.2398 15.3143C24.1783 15.3246 24.1066 15.3451 24.0451 15.3553C23.2357 15.5397 22.959 16.759 23.1742 19.1976C23.4918 22.7633 29.3526 23.5522 31.0945 23.7059V25.7449H30.9305C30.4694 25.7449 30.0903 26.124 30.0903 26.5851V29.2798C30.0903 29.7409 30.4694 30.12 30.9305 30.12H44.0558C44.5169 30.12 44.896 29.7409 44.896 29.2798V26.5851C44.896 26.1138 44.5272 25.7449 44.0558 25.7449ZM31.617 22.7428C29.6293 22.6403 24.414 21.8001 24.1681 19.1156C24.1271 18.6751 24.1168 18.3062 24.1066 17.9886C24.4037 18.1628 24.7623 18.2755 25.1517 18.2755C26.1558 18.2755 26.9653 17.589 26.9653 16.7488C26.9653 16.3492 26.7808 15.9803 26.4837 15.7139L29.7112 14.72L30.0289 14.6176L30.0596 14.2897C30.0596 14.259 30.3977 11.3183 32.7031 10.6728C35.4901 9.88386 40.3057 8.99245 41.2279 11.8409L41.2484 11.9126L41.2894 11.9741C42.5804 13.8901 44.814 18.1525 43.4513 19.0747C42.0988 19.9968 39.7832 20.0378 38.5332 19.9763C37.9901 19.9558 37.5393 19.5562 37.4368 19.0234C37.1909 17.7222 36.8733 15.3246 37.6008 13.8286L36.6991 13.3983C35.8897 15.0684 36.1253 17.4865 36.4532 19.2181C36.6479 20.212 37.4778 20.9395 38.4922 20.9804C39.8037 21.0419 41.5045 20.9804 42.9083 20.4681L42.9697 25.7551H32.0986V22.7735L31.617 22.7428Z" fill="#333846" fill-opacity="0.4"/>
<rect x="2" y="1.5" width="64" height="36" rx="8" stroke="#EBEBED" stroke-width="3"/>
</svg>
