<svg width="32" height="32" viewBox="0 0 32 32" fill="none" xmlns="http://www.w3.org/2000/svg">
<circle cx="16" cy="16" r="16" fill="#E5F2FF"/>
<mask id="mask0_562_586" style="mask-type:alpha" maskUnits="userSpaceOnUse" x="0" y="0" width="32" height="32">
<circle cx="16" cy="16" r="16" fill="white"/>
</mask>
<g mask="url(#mask0_562_586)">
<path fill-rule="evenodd" clip-rule="evenodd" d="M8.67922 47H24.0879L23.3505 39.7313L25 23.6227C25 22.5207 24.3984 21.5593 23.5639 21.3014L21.6621 20.7386C18.266 19.7538 14.734 19.7538 11.3379 20.7386L9.43607 21.3014C8.58219 21.5359 8 22.4972 8 23.6227L9.72717 39.825L8.67922 47Z" fill="#F34653"/>
<path fill-rule="evenodd" clip-rule="evenodd" d="M9.126 22.6259C9.04453 21.9361 8.37233 21.7981 7.94457 22.304C5.88725 24.7183 3.82993 27.5006 2.07815 34.7437C1.18189 38.4918 8.29085 49 8.29085 49L8.88157 43.1136C8.88157 43.1136 7.37422 38.7217 6.39649 36.6062L11 33.2031L9.126 22.6259Z" fill="#F34653"/>
<path fill-rule="evenodd" clip-rule="evenodd" d="M23.8716 22.6243C23.9513 21.9362 24.6083 21.7986 25.0264 22.3032C27.0374 24.7114 29.0484 27.4866 30.7608 34.7113C31.6368 38.4497 29.825 49 29.825 49L26.8582 47.5322C26.8582 47.5322 26.46 39.2066 26.4998 36.5461L22 33.1516L23.8716 22.6243Z" fill="#F34653"/>
<circle cx="15.5" cy="12.5" r="5.5" fill="#F8B68F"/>
</g>
</svg>
