<svg width="30" height="30" viewBox="0 0 30 30" fill="none" xmlns="http://www.w3.org/2000/svg">
<circle opacity="0.1" cx="15" cy="15" r="15" fill="#007FFF"/>
<mask id="mask0_317_5971" style="mask-type:alpha" maskUnits="userSpaceOnUse" x="0" y="0" width="30" height="30">
<circle cx="15" cy="15" r="15" fill="white"/>
</mask>
<g mask="url(#mask0_317_5971)">
<path d="M14.3466 13.227L17.0417 3.99194L18.4335 4.39788L15.6572 13.9113L14.3466 13.227Z" fill="#858890"/>
<path d="M17.9768 13.7347L15.4759 22.3101C14.4378 21.157 12.6758 21.0255 11.478 22.0117C10.2801 22.9979 10.0709 24.7524 11.0033 25.9926L7.0382 24.666C6.28544 24.4173 5.87211 23.61 6.11035 22.8538L8.25601 16.0616C9.20335 13.0642 12.3703 11.3713 15.3889 12.2487C16.3575 12.5309 17.2448 13.0404 17.9768 13.7347Z" fill="#007FFF"/>
<path d="M14.3479 23.5881L19.7962 4.90552L21.1879 5.31218L15.7158 24.0774L14.3479 23.5881Z" fill="#858890"/>
<path d="M21.2677 6.09523C21.1898 6.09505 21.1125 6.08232 21.0386 6.05753L16.6893 4.60776C16.4433 4.52592 16.2596 4.31904 16.2075 4.06506C16.1553 3.81107 16.2426 3.54856 16.4365 3.37642C16.6304 3.20427 16.9014 3.14863 17.1475 3.23047L21.4968 4.68025C21.838 4.78989 22.0478 5.13243 21.9906 5.48622C21.9333 5.84 21.6261 6.09883 21.2677 6.09523Z" fill="#333846"/>
<path d="M16.1935 24.2173C16.196 25.6218 15.1931 26.8269 13.8114 27.0796C12.4298 27.3323 11.0653 26.5602 10.5705 25.2457C10.0757 23.9311 10.5923 22.4509 11.7976 21.7298C13.0029 21.0087 14.5515 21.2533 15.4759 22.3108C15.9378 22.8386 16.1927 23.5159 16.1935 24.2173Z" fill="#333846"/>
</g>
</svg>
