<svg width="24" height="24" viewBox="0 0 24 24" fill="none" xmlns="http://www.w3.org/2000/svg">
<path fill-rule="evenodd" clip-rule="evenodd" d="M15.6 2.1001C16.0971 2.1001 16.5 2.50304 16.5 3.0001V3.9001H18.3C19.7912 3.9001 21 5.10893 21 6.6001V10.2001V19.2001C21 20.6913 19.7912 21.9001 18.3 21.9001H5.7C4.20883 21.9001 3 20.6913 3 19.2001V10.2001V6.6001C3 5.10893 4.20883 3.9001 5.7 3.9001H7.5V3.0001C7.5 2.50304 7.90294 2.1001 8.4 2.1001C8.89706 2.1001 9.3 2.50304 9.3 3.0001V3.9001H14.7V3.0001C14.7 2.50304 15.1029 2.1001 15.6 2.1001ZM7.5 5.7001V6.6001C7.5 7.09715 7.90294 7.5001 8.4 7.5001C8.89706 7.5001 9.3 7.09715 9.3 6.6001V5.7001H14.7V6.6001C14.7 7.09715 15.1029 7.5001 15.6 7.5001C16.0971 7.5001 16.5 7.09715 16.5 6.6001V5.7001H18.3C18.7971 5.7001 19.2 6.10304 19.2 6.6001V9.3001H4.8V6.6001C4.8 6.10304 5.20294 5.7001 5.7 5.7001H7.5ZM19.2 11.1001V19.2001C19.2 19.6972 18.7971 20.1001 18.3 20.1001H5.7C5.20294 20.1001 4.8 19.6972 4.8 19.2001V11.1001H19.2Z" fill="#333846"/>
</svg>
