<svg width="30" height="30" viewBox="0 0 30 30" fill="none" xmlns="http://www.w3.org/2000/svg">
<circle opacity="0.1" cx="15" cy="15" r="15" fill="#007FFF"/>
<mask id="mask0_317_5981" style="mask-type:alpha" maskUnits="userSpaceOnUse" x="0" y="0" width="30" height="30">
<circle cx="15" cy="15" r="15" fill="white"/>
</mask>
<g mask="url(#mask0_317_5981)">
<path d="M9.91357 19.6158C9.54661 19.6158 9.25 19.3191 9.25 18.9522V14.5295C9.25 14.1632 9.54661 13.866 9.91357 13.866C10.2805 13.866 10.5771 14.1632 10.5771 14.5295V18.9522C10.5771 19.3185 10.2805 19.6158 9.91357 19.6158Z" fill="#333846"/>
<path d="M20.5314 19.6158C20.1644 19.6158 19.8678 19.3191 19.8678 18.9522V14.5295C19.8678 14.1632 20.1644 13.866 20.5314 13.866C20.8983 13.866 21.1949 14.1632 21.1949 14.5295V18.9522C21.1949 19.3185 20.8983 19.6158 20.5314 19.6158Z" fill="#333846"/>
<path d="M11.2407 20.9426C10.1432 20.9426 9.25 20.0494 9.25 18.9519C9.25 18.5849 9.54661 18.2883 9.91357 18.2883C10.2805 18.2883 10.5771 18.5849 10.5771 18.9519C10.5771 19.3175 10.8744 19.6155 11.2407 19.6155C11.6076 19.6155 11.9043 19.9121 11.9043 20.279C11.9043 20.646 11.6076 20.9426 11.2407 20.9426Z" fill="#333846"/>
<path d="M19.2035 20.9433C18.8365 20.9433 18.5399 20.646 18.5399 20.2797C18.5399 19.9134 18.8365 19.6161 19.2035 19.6161C19.5698 19.6161 19.8677 19.3182 19.8677 18.9519C19.8677 18.5849 20.1643 18.2883 20.5313 18.2883C20.8982 18.2883 21.1948 18.5849 21.1948 18.9519C21.1948 20.0494 20.301 20.9433 19.2035 20.9433Z" fill="#333846"/>
<path d="M19.2035 20.9431H11.2407C10.8738 20.9431 10.5771 20.6465 10.5771 20.2795C10.5771 19.9126 10.8738 19.616 11.2407 19.616H19.2035C19.5704 19.616 19.8671 19.9126 19.8671 20.2795C19.8671 20.6465 19.5704 20.9431 19.2035 20.9431Z" fill="#333846"/>
<path d="M20.5306 14.5266V18.9526C20.5306 19.6891 19.9334 20.2797 19.2035 20.2797H11.2407C10.5041 20.2797 9.91357 19.6891 9.91357 18.9526V14.5266L15.2221 16.2983L20.5306 14.5266Z" fill="#333846"/>
<path d="M25.1756 12.9804L20.5307 14.5265L15.2222 16.2983L9.91363 14.5265L5.26868 12.9804L15.2222 9.6626L25.1756 12.9804Z" fill="#5C606B"/>
<path d="M15.2221 16.9621C15.1518 16.9621 15.0801 16.9508 15.0125 16.9276L5.05898 13.6098C4.78758 13.5195 4.6051 13.2661 4.6051 12.9807C4.6051 12.6954 4.78758 12.4412 5.05898 12.3517L15.0125 9.03384C15.1485 8.98872 15.2965 8.98872 15.4325 9.03384L25.386 12.3517C25.6567 12.4412 25.8392 12.6947 25.8392 12.9807C25.8392 13.2667 25.6567 13.5202 25.3853 13.6098L15.4318 16.9276C15.3642 16.9508 15.2925 16.9621 15.2221 16.9621ZM7.36686 12.9807L15.2221 15.5992L23.0774 12.9807L15.2221 10.3623L7.36686 12.9807Z" fill="#5C606B"/>
<path d="M25.1757 17.6255C24.8087 17.6255 24.5121 17.3289 24.5121 16.9619V12.9812C24.5121 12.6149 24.8087 12.3176 25.1757 12.3176C25.5426 12.3176 25.8392 12.6149 25.8392 12.9812V16.9619C25.8392 17.3282 25.5426 17.6255 25.1757 17.6255Z" fill="#FFC247"/>
<path d="M25.1756 13.6438H15.2222C14.8552 13.6438 14.5586 13.3472 14.5586 12.9802C14.5586 12.6133 14.8552 12.3167 15.2222 12.3167H25.1756C25.5426 12.3167 25.8392 12.6133 25.8392 12.9802C25.8392 13.3472 25.5426 13.6438 25.1756 13.6438Z" fill="#FFC247"/>
</g>
</svg>
