<svg width="21" height="20" viewBox="0 0 21 20" fill="none" xmlns="http://www.w3.org/2000/svg">
<path d="M11.3333 10.5583L12.9035 8.99413C13.2285 8.67042 13.7542 8.67093 14.0785 8.99527C14.4033 9.32005 14.4033 9.84662 14.0785 10.1714L10.4999 13.75L6.92132 10.1714C6.59654 9.84662 6.59654 9.32005 6.92132 8.99527C7.24566 8.67093 7.77135 8.67042 8.09632 8.99413L9.66659 10.5583V3.33333C9.66659 2.87309 10.0397 2.5 10.4999 2.5C10.9602 2.5 11.3333 2.8731 11.3333 3.33333V10.5583Z" fill="black"/>
<path fill-rule="evenodd" clip-rule="evenodd" d="M3.8335 16.6048C3.8335 16.1446 4.20659 15.7715 4.66683 15.7715H16.3335C16.7937 15.7715 17.1668 16.1446 17.1668 16.6048C17.1668 17.0651 16.7937 17.4382 16.3335 17.4382H4.66683C4.20659 17.4382 3.8335 17.0651 3.8335 16.6048Z" fill="black"/>
</svg>
