<svg width="32" height="32" viewBox="0 0 32 32" fill="none" xmlns="http://www.w3.org/2000/svg">
<circle opacity="0.1" cx="16" cy="16" r="16" fill="#007FFF"/>
<mask id="mask0_1156_333" style="mask-type:alpha" maskUnits="userSpaceOnUse" x="0" y="0" width="32" height="32">
<circle cx="16" cy="16" r="16" fill="white"/>
</mask>
<g mask="url(#mask0_1156_333)">
<path d="M11.8779 20.3625L13.9948 20.4686L13.9895 16.7229L13.9365 17.0678C13.6765 18.6912 12.9709 20.0707 11.8779 20.3625Z" fill="#FFC8A7"/>
<path d="M20.4727 20.3623L18.3452 20.4684L18.5202 16.6272C18.5786 18.4098 19.3744 20.0705 20.4727 20.3623Z" fill="#FFC8A7"/>
<path d="M28.691 36.1039C28.691 36.1039 26.8181 26.1296 24.7914 22.5908C24.3086 21.742 23.0831 21.2486 21.6983 21.7101C20.6956 22.0285 19.921 23.1957 20.1969 24.1347L25.0408 37.0324C25.0832 37.1544 25.4865 38.2526 25.6032 38.3216C26.1019 38.6081 27.1683 38.3747 27.3964 38.3163L27.5927 38.311C28.5902 37.9927 28.8979 37.043 28.691 36.1039Z" fill="#FCA17E"/>
<path d="M0.264036 34.7297C0.264036 34.7297 4.42354 25.4716 7.21423 22.5005C7.88272 21.7896 9.19318 21.5933 10.4294 22.3679C11.3313 22.909 11.8088 24.2248 11.3207 25.079L3.59588 36.4858C3.52691 36.5919 3.4155 36.6662 3.28817 36.7033C2.73639 36.8625 1.21372 37.2922 1.0068 37.1808L0.815807 37.1277C-0.0808204 36.5919 -0.155097 35.5945 0.264036 34.7297Z" fill="#FCA17E"/>
<path d="M11.4268 22.1238C9.94661 21.2007 8.25947 20.877 7.45303 21.7259C5.07087 24.2619 2.31732 29.1748 0.662003 32.6287C0.662003 32.6287 1.50027 33.7057 2.74175 34.215C4.59337 34.9684 5.77119 34.9631 5.77119 34.9631L12.4986 25.3761C13.0822 24.3521 12.5039 22.7764 11.4268 22.1238Z" fill="#FFC247"/>
<path d="M18.7801 11.6188L18.5731 16.7545L18.5572 17.1365L18.4193 20.4577L18.3981 21.0307L13.8088 20.967L13.83 20.4524L13.9786 16.7651L13.9892 16.5476L14.1908 11.5498L16.1114 11.5763L18.7801 11.6188Z" fill="#FFC8A7"/>
<path d="M22.8597 43.9295L9.47929 44.1311L7.81337 21.9807C7.81337 21.9807 10.8004 20.6967 11.8774 20.3572H20.4723C21.5228 20.8081 24.1808 21.9223 24.1808 21.9223L22.8597 43.9295Z" fill="#FFC8A7"/>
<path d="M21.6572 11.6792C21.8116 10.9841 21.6377 10.3542 21.2687 10.2722C20.8997 10.1902 20.4754 10.6872 20.321 11.3823C20.1665 12.0774 20.3405 12.7073 20.7095 12.7893C21.0784 12.8713 21.5028 12.3743 21.6572 11.6792Z" fill="#FFC8A7"/>
<path d="M20.6001 11.4916C20.5576 11.6296 20.5735 11.7622 20.6372 11.794C20.6956 11.8259 20.7805 11.7357 20.8176 11.603C20.86 11.4651 20.8441 11.3325 20.7805 11.3006C20.7221 11.2688 20.6425 11.3537 20.6001 11.4916Z" fill="#F19B78"/>
<path d="M21.1199 12.5052C21.1517 12.4999 21.2578 12.4203 21.3268 12.3672C21.1783 12.6749 20.9289 12.8659 20.6583 12.7757C20.4832 12.7174 20.2445 12.4203 20.3188 11.9746C20.4302 12.3672 20.7963 12.5847 21.1199 12.5052Z" fill="#F5AE90"/>
<path d="M20.6211 11.6511C20.6476 11.5927 20.6742 11.5344 20.706 11.4866C20.8598 11.2213 21.0562 11.0781 21.2365 11.1258C21.21 11.1046 21.1888 11.0887 21.1623 11.0781C21.0243 11.025 20.8705 11.1046 20.7378 11.2691C20.7007 11.3168 20.6635 11.3699 20.6317 11.4336C20.6211 11.5025 20.6158 11.5715 20.6211 11.6511Z" fill="#F19B78"/>
<path d="M20.6375 11.7943C20.6534 11.8049 20.6747 11.7996 20.6959 11.789C20.6534 11.7519 20.6428 11.6511 20.664 11.5449C20.6693 11.529 20.6693 11.5131 20.6747 11.4972C20.6853 11.4654 20.6959 11.4335 20.7118 11.407C20.7171 11.3964 20.7171 11.3911 20.7224 11.3805C20.733 11.3486 20.7489 11.3221 20.7595 11.2903C20.7065 11.2903 20.6375 11.3699 20.6057 11.4866C20.6057 11.4972 20.6004 11.5025 20.6004 11.5131C20.5632 11.6458 20.5792 11.7678 20.6375 11.7943Z" fill="#E79371"/>
<path d="M11.8563 9.71985L11.9731 12.0224C11.9784 12.1392 11.989 12.2559 12.0049 12.3779C12.0261 12.5158 12.0526 12.6538 12.0898 12.797C12.0898 12.8236 12.0898 12.8448 12.0951 12.8713C12.1906 14.0226 13.0713 15.2641 13.4162 15.7522C13.8937 16.4366 15.0237 17.4871 16.2015 17.5348L16.9868 17.5667C18.5625 17.6303 19.8517 15.9114 20.4247 14.9935C20.7271 14.5107 21.0401 13.89 21.0879 12.8978C21.0932 12.8289 21.0932 12.7599 21.0932 12.6909C21.1197 12.484 21.1303 12.2771 21.125 12.0755L21.194 9.184C21.0985 6.49411 18.9339 4.43028 16.3554 4.57883C13.7769 4.72739 11.7662 7.02997 11.8563 9.71985Z" fill="#FFC8A7"/>
<path d="M11.5222 7.21543C11.5858 5.28954 13.5489 4.14886 15.8461 3.79339C16.2918 3.72442 17.0186 3.74564 17.4855 3.81992C18.0904 3.91542 18.7482 4.26558 19.2788 4.68471C19.5971 4.93407 19.9685 5.3479 19.9685 5.3479C19.9685 5.3479 20.446 5.48584 20.7272 5.87845C21.0773 6.36655 21.2471 7.16238 21.2206 7.52315L21.2047 8.29775L21.1781 10.5844L21.1569 11.0778C21.1622 10.733 20.8545 9.85226 20.8386 9.49679C20.828 9.16255 20.7325 8.65322 20.6847 8.48875C20.637 8.32428 20.5256 8.01656 20.4725 7.89453C20.3611 7.68762 20.2921 7.56559 20.2921 7.56559C20.2921 7.56559 20.1436 7.73537 20.064 7.92637C19.9367 8.22878 18.6793 7.21543 18.6793 7.21543C18.7429 7.7619 19.6342 8.25531 19.6342 8.25531C17.8092 9.37477 13.9043 7.91576 13.326 7.0881C13.2836 7.02443 13.0767 7.15707 13.0448 7.21543C13.0448 7.21543 13.1191 9.17316 12.8963 10.1069C12.8963 10.1069 12.2437 10.3881 12.2596 10.6693C12.2915 11.2317 12.2331 11.0195 11.8087 10.4836C11.607 10.2343 11.7503 11.7835 11.7503 11.7835C11.6177 11.3855 11.5646 10.9452 11.5487 10.0539L11.5275 7.33215L11.5222 7.21543Z" fill="#333846"/>
<path d="M12.1246 12.6287C12.4955 12.5561 12.6855 11.9309 12.5488 11.2321C12.4122 10.5333 12.0007 10.0256 11.6298 10.0982C11.2588 10.1707 11.0689 10.796 11.2055 11.4947C11.3421 12.1935 11.7536 12.7012 12.1246 12.6287Z" fill="#FFC8A7"/>
<path d="M25.7836 34.0136C27.1152 33.2443 28.5 33.1489 28.8767 33.8014C28.9616 33.95 28.9881 34.1251 28.9616 34.3161C29.0677 34.1887 29.1207 34.1145 29.1207 34.1145L25.3432 22.9093C24.8498 21.8429 23.6083 21.3282 22.457 21.8322C20.8442 22.506 19.5867 24.1667 19.8202 25.3126C20.4781 28.5543 22.2236 33.117 23.9956 36.4276C23.794 35.7698 24.5474 34.7246 25.7836 34.0136Z" fill="#FFC247"/>
<path d="M25.0565 48.5771C24.2978 41.7383 24.0431 21.779 24.4463 21.9223C24.4463 21.9223 21.6822 20.8081 20.5892 20.3572C20.5892 21.413 18.292 22.2725 16.0106 22.2725C13.7292 22.2725 11.8776 21.4183 11.8776 20.3572H11.6495C10.53 20.6914 7.29369 20.8559 7.42632 21.9807C9.77135 42.4068 5.9567 40.0936 8.99144 44.2C9.69707 45.155 12.3657 45.0914 13.4958 45.6856C16.0531 47.0279 19.7032 50.7576 22.5735 51.0707C23.1783 51.1343 25.2528 50.3173 25.0565 48.5771Z" fill="#FFC247"/>
<path d="M22.7065 28.0977H11.5597V32.5065H22.7065V28.0977Z" fill="#FFF1DB"/>
</g>
</svg>
