<svg width="12" height="12" viewBox="0 0 12 12" fill="none" xmlns="http://www.w3.org/2000/svg">
<path d="M6.00376 1.23657C5.71094 1.23657 5.47443 1.47308 5.47443 1.7659L5.47068 5.43363H1.79919C1.50637 5.43363 1.26987 5.67013 1.26987 5.96295C1.26987 6.25577 1.50637 6.49228 1.79919 6.49228H5.47068L5.47068 10.1638C5.47068 10.4566 5.70718 10.6931 6 10.6931C6.29282 10.6931 6.52933 10.4566 6.52933 10.1638L6.52933 6.49228H10.2008C10.4936 6.49228 10.7301 6.25577 10.7301 5.96295C10.7301 5.67013 10.4936 5.43363 10.2008 5.43363H6.52933L6.52933 1.76214C6.52933 1.47683 6.28906 1.23657 6.00376 1.23657Z" fill="#333846"/>
</svg>
