<svg width="24" height="24" viewBox="0 0 24 24" fill="none" xmlns="http://www.w3.org/2000/svg">
<path d="M9.5001 13C9.78343 13 10.0211 12.904 10.2131 12.712C10.4051 12.52 10.5008 12.2827 10.5001 12C10.5001 11.7167 10.4041 11.479 10.2121 11.287C10.0201 11.095 9.78276 10.9993 9.5001 11C9.21676 11 8.9791 11.096 8.7871 11.288C8.5951 11.48 8.49943 11.7173 8.5001 12C8.5001 12.2833 8.5961 12.521 8.7881 12.713C8.9801 12.905 9.21743 13.0007 9.5001 13ZM13.0001 13C13.2834 13 13.5211 12.904 13.7131 12.712C13.9051 12.52 14.0008 12.2827 14.0001 12C14.0001 11.7167 13.9041 11.479 13.7121 11.287C13.5201 11.095 13.2828 10.9993 13.0001 11C12.7168 11 12.4791 11.096 12.2871 11.288C12.0951 11.48 11.9994 11.7173 12.0001 12C12.0001 12.2833 12.0961 12.521 12.2881 12.713C12.4801 12.905 12.7174 13.0007 13.0001 13ZM16.5001 13C16.7834 13 17.0211 12.904 17.2131 12.712C17.4051 12.52 17.5008 12.2827 17.5001 12C17.5001 11.7167 17.4041 11.479 17.2121 11.287C17.0201 11.095 16.7828 10.9993 16.5001 11C16.2168 11 15.9791 11.096 15.7871 11.288C15.5951 11.48 15.4994 11.7173 15.5001 12C15.5001 12.2833 15.5961 12.521 15.7881 12.713C15.9801 12.905 16.2174 13.0007 16.5001 13ZM9.0001 19C8.66676 19 8.3541 18.925 8.0621 18.775C7.7701 18.625 7.53276 18.4167 7.3501 18.15L3.8251 13.15C3.59176 12.8 3.4751 12.4167 3.4751 12C3.4751 11.5833 3.59176 11.2 3.8251 10.85L7.3501 5.85C7.53343 5.58333 7.7711 5.375 8.0631 5.225C8.3551 5.075 8.66743 5 9.0001 5H19.0001C19.5501 5 20.0211 5.196 20.4131 5.588C20.8051 5.98 21.0008 6.45067 21.0001 7V17C21.0001 17.55 20.8041 18.021 20.4121 18.413C20.0201 18.805 19.5494 19.0007 19.0001 19H9.0001ZM5.4501 12L9.0001 17H19.0001V7H9.0001L5.4501 12ZM19.0001 12V7V17V12Z" fill="#333846"/>
</svg>
