<svg width="23" height="17" viewBox="0 0 23 17" fill="none" xmlns="http://www.w3.org/2000/svg">
<path d="M2.60688 3.872V6.068H5.60688V7.364H2.60688V9.644H5.96688V11H0.914875V2.528H5.96688V3.872H2.60688ZM9.92356 4.268C10.4836 4.268 10.9596 4.4 11.3516 4.664C11.7516 4.928 12.0396 5.284 12.2156 5.732V2.12H13.8956V11H12.2156V9.608C12.0396 10.056 11.7516 10.416 11.3516 10.688C10.9596 10.952 10.4836 11.084 9.92356 11.084C9.36356 11.084 8.85956 10.948 8.41156 10.676C7.96356 10.404 7.61156 10.012 7.35556 9.5C7.10756 8.98 6.98356 8.372 6.98356 7.676C6.98356 6.98 7.10756 6.376 7.35556 5.864C7.61156 5.344 7.96356 4.948 8.41156 4.676C8.85956 4.404 9.36356 4.268 9.92356 4.268ZM10.4516 5.744C9.92356 5.744 9.49956 5.916 9.17956 6.26C8.85956 6.604 8.69956 7.076 8.69956 7.676C8.69956 8.276 8.85956 8.748 9.17956 9.092C9.49956 9.428 9.92356 9.596 10.4516 9.596C10.9636 9.596 11.3836 9.424 11.7116 9.08C12.0476 8.728 12.2156 8.26 12.2156 7.676C12.2156 7.084 12.0476 6.616 11.7116 6.272C11.3836 5.92 10.9636 5.744 10.4516 5.744ZM15.3369 2.444C15.3369 2.172 15.4329 1.952 15.6249 1.784C15.8169 1.608 16.0689 1.52 16.3809 1.52C16.6929 1.52 16.9449 1.608 17.1369 1.784C17.3289 1.952 17.4249 2.172 17.4249 2.444C17.4249 2.708 17.3289 2.928 17.1369 3.104C16.9449 3.272 16.6929 3.356 16.3809 3.356C16.0689 3.356 15.8169 3.272 15.6249 3.104C15.4329 2.928 15.3369 2.708 15.3369 2.444ZM17.2209 4.352V11H15.5289V4.352H17.2209ZM22.4036 9.548V11H21.5156C20.7716 11 20.1996 10.82 19.7996 10.46C19.4076 10.1 19.2116 9.5 19.2116 8.66V5.78H18.2876V4.352H19.2116V2.708H20.9036V4.352H22.3916V5.78H20.9036V8.684C20.9036 9.004 20.9676 9.228 21.0956 9.356C21.2236 9.484 21.4396 9.548 21.7436 9.548H22.4036Z" fill="#333846"/>
<line x1="1" y1="16" x2="22" y2="16" stroke="#333846" stroke-width="2" stroke-linecap="round" stroke-dasharray="0.1 4"/>
</svg>
