<svg width="16" height="16" viewBox="0 0 16 16" fill="none" xmlns="http://www.w3.org/2000/svg">
<path d="M12.6487 3.2792C11.4235 2.01794 9.72977 1.33325 8.00004 1.33325C4.32437 1.33325 1.36941 4.32424 1.40545 7.96388C1.40545 9.11704 1.72977 10.2342 2.27031 11.2432L1.33337 14.6666L4.82887 13.7657C5.80184 14.3062 6.88292 14.5585 7.96401 14.5585C11.6036 14.5585 14.5586 11.5675 14.5586 7.92785C14.5586 6.16208 13.8739 4.50442 12.6487 3.2792Z" fill="#333846"/>
<path d="M7.99989 13.4416C7.02692 13.4416 6.05395 13.1893 5.22512 12.6848L5.0089 12.5767L2.91881 13.1173L3.45935 11.0632L3.31521 10.847C1.72962 8.28843 2.48638 4.90104 5.08097 3.31545C7.67557 1.72987 11.0269 2.48662 12.6125 5.08122C14.1981 7.67581 13.4413 11.0272 10.8467 12.6128C10.0179 13.1533 9.0089 13.4416 7.99989 13.4416Z" fill="white"/>
<path d="M11.1711 9.44147L10.7747 9.26129C10.7747 9.26129 10.1982 9.00904 9.8378 8.82886C9.80176 8.82886 9.76573 8.79282 9.72969 8.79282C9.62158 8.79282 9.54951 8.82886 9.47744 8.86489C9.47744 8.86489 9.4414 8.90093 8.9369 9.47751C8.90086 9.54958 8.82879 9.58561 8.75672 9.58561H8.72068C8.68465 9.58561 8.61257 9.54958 8.57654 9.51354L8.39636 9.44147C7.99996 9.26129 7.6396 9.04507 7.35131 8.75679C7.27924 8.68471 7.17113 8.61264 7.09906 8.54057C6.84681 8.28832 6.59456 8.00003 6.41438 7.6757L6.37834 7.60363C6.3423 7.5676 6.3423 7.53156 6.30627 7.45949C6.30627 7.38742 6.30627 7.31534 6.3423 7.27931C6.3423 7.27931 6.48645 7.09913 6.59456 6.99102C6.66663 6.91895 6.70266 6.81084 6.77474 6.73877C6.84681 6.63066 6.88284 6.48652 6.84681 6.37841C6.81077 6.19823 6.37834 5.22525 6.27023 5.00904C6.19816 4.90093 6.12609 4.86489 6.01798 4.82886H5.90987C5.8378 4.82886 5.72969 4.82886 5.62158 4.82886C5.54951 4.82886 5.47744 4.86489 5.40537 4.86489L5.36933 4.90093C5.29726 4.93697 5.22519 5.00904 5.15311 5.04507C5.08104 5.11715 5.04501 5.18922 4.97293 5.26129C4.72068 5.58561 4.57654 5.98201 4.57654 6.37841C4.57654 6.6667 4.64861 6.95498 4.75672 7.20724L4.79275 7.31534C5.11708 8.00003 5.54951 8.61264 6.12609 9.15318L6.27023 9.29733C6.37834 9.40543 6.48645 9.47751 6.55852 9.58561C7.31528 10.2343 8.18014 10.7027 9.15312 10.955C9.26122 10.991 9.40537 10.991 9.51348 11.0271C9.62158 11.0271 9.76573 11.0271 9.87384 11.0271C10.054 11.0271 10.2702 10.955 10.4144 10.8829C10.5225 10.8108 10.5946 10.8108 10.6666 10.7388L10.7387 10.6667C10.8108 10.5946 10.8828 10.5586 10.9549 10.4865C11.027 10.4144 11.0991 10.3424 11.1351 10.2703C11.2072 10.1262 11.2432 9.94598 11.2792 9.76579C11.2792 9.69372 11.2792 9.58561 11.2792 9.51354C11.2792 9.51354 11.2432 9.47751 11.1711 9.44147Z" fill="#333846"/>
</svg>
