<svg width="24" height="24" viewBox="0 0 24 24" fill="none" xmlns="http://www.w3.org/2000/svg">
<path fill-rule="evenodd" clip-rule="evenodd" d="M15.6 2.09998C16.0971 2.09998 16.5 2.50292 16.5 2.99998V3.89998H18.3C19.7912 3.89998 21 5.10881 21 6.59998V10.2V19.2C21 20.6911 19.7912 21.9 18.3 21.9H5.7C4.20883 21.9 3 20.6911 3 19.2V10.2V6.59998C3 5.10881 4.20883 3.89998 5.7 3.89998H7.5V2.99998C7.5 2.50292 7.90294 2.09998 8.4 2.09998C8.89706 2.09998 9.3 2.50292 9.3 2.99998V3.89998H14.7V2.99998C14.7 2.50292 15.1029 2.09998 15.6 2.09998ZM7.5 5.69998V6.59998C7.5 7.09703 7.90294 7.49998 8.4 7.49998C8.89706 7.49998 9.3 7.09703 9.3 6.59998V5.69998H14.7V6.59998C14.7 7.09703 15.1029 7.49998 15.6 7.49998C16.0971 7.49998 16.5 7.09703 16.5 6.59998V5.69998H18.3C18.7971 5.69998 19.2 6.10292 19.2 6.59998V9.29998H4.8V6.59998C4.8 6.10292 5.20294 5.69998 5.7 5.69998H7.5ZM19.2 11.1V19.2C19.2 19.697 18.7971 20.1 18.3 20.1H5.7C5.20294 20.1 4.8 19.697 4.8 19.2V11.1H19.2Z" fill="#333846"/>
</svg>
