<svg width="20" height="20" viewBox="0 0 20 20" fill="none" xmlns="http://www.w3.org/2000/svg">
<path fill-rule="evenodd" clip-rule="evenodd" d="M4.75592 4.41076C4.43048 4.7362 4.43048 5.26384 4.75592 5.58928L8.88071 9.71407L4.75593 13.8389C4.43049 14.1643 4.43049 14.6919 4.75593 15.0174C5.08137 15.3428 5.60901 15.3428 5.93444 15.0174L10.0592 10.8926L14.184 15.0174C14.5094 15.3428 15.0371 15.3428 15.3625 15.0174C15.688 14.6919 15.688 14.1643 15.3625 13.8389L11.2377 9.71407L15.3625 5.58928C15.688 5.26384 15.688 4.7362 15.3625 4.41076C15.0371 4.08533 14.5095 4.08533 14.184 4.41076L10.0592 8.53556L5.93443 4.41076C5.60899 4.08533 5.08136 4.08533 4.75592 4.41076Z" fill="#B00020"/>
</svg>
