<svg width="21" height="20" viewBox="0 0 21 20" fill="none" xmlns="http://www.w3.org/2000/svg">
<path fill-rule="evenodd" clip-rule="evenodd" d="M16.0893 1.91073C15.7638 1.5853 15.2362 1.5853 14.9107 1.91073C14.5853 2.23617 14.5853 2.76381 14.9107 3.08925L18.2441 6.42258C18.5695 6.74802 19.0972 6.74802 19.4226 6.42258C19.748 6.09714 19.748 5.5695 19.4226 5.24407L16.0893 1.91073ZM13.9406 3.97873C13.6141 3.65982 13.0918 3.66289 12.7691 3.98562L3.24408 13.5106C3.0878 13.6669 3 13.8789 3 14.0999V17.1749C3 17.6274 3.36112 17.9972 3.8135 18.008L6.9635 18.083C7.19019 18.0884 7.4093 18.0012 7.57027 17.8414L17.1703 8.31644C17.3288 8.15918 17.4175 7.94489 17.4167 7.72161C17.4158 7.49833 17.3253 7.28475 17.1656 7.12873L13.9406 3.97873ZM4.66667 14.4451L13.3652 5.7465L15.3955 7.72954L6.64834 16.4083L4.66667 16.3612V14.4451Z" fill="#333846"/>
</svg>
