<svg width="108" height="107" viewBox="0 0 108 107" fill="none" xmlns="http://www.w3.org/2000/svg">
<g clip-path="url(#clip0_303_707)">
<path d="M35.8817 14.0183C35.8817 6.3661 29.6828 0.167175 22.0306 0.167175C14.3784 0.167175 8.17948 6.3661 8.17948 14.0183C8.17948 21.6705 14.3784 27.8694 22.0306 27.8694C29.6828 27.8565 35.8817 21.6576 35.8817 14.0183Z" fill="#FAA8AE"/>
<path d="M33.1681 14.0183C33.1681 7.87079 28.1909 2.89365 22.0435 2.89365C15.896 2.89365 10.9188 7.87079 10.9188 14.0183C10.9188 20.1657 15.896 25.1429 22.0435 25.1429C28.1781 25.13 33.1681 20.1529 33.1681 14.0183Z" fill="white"/>
<path d="M30.5959 14.0183C30.5959 9.29838 26.7634 5.46585 22.0435 5.46585C17.3235 5.46585 13.491 9.29838 13.491 14.0183C13.491 18.7382 17.3235 22.5708 22.0435 22.5708C26.7634 22.5708 30.5959 18.7382 30.5959 14.0183Z" fill="#FAA8AE"/>
<path d="M27.5608 14.0183C27.5608 10.9703 25.0915 8.48816 22.0306 8.48816C18.9826 8.48816 16.5004 10.9574 16.5004 14.0183C16.5004 17.0792 18.9697 19.5485 22.0306 19.5485C25.0915 19.5356 27.5608 17.0663 27.5608 14.0183Z" fill="white"/>
<path d="M25.0529 14.0183C25.0529 12.3464 23.7025 10.996 22.0306 10.996C20.3587 10.996 19.0083 12.3464 19.0083 14.0183C19.0083 15.6902 20.3587 17.0406 22.0306 17.0406C23.7025 17.0277 25.0529 15.6773 25.0529 14.0183Z" fill="#F66974"/>
<path d="M30.2101 16.7448C30.2872 16.7448 30.3644 16.6933 30.3901 16.6033C30.6473 15.7673 30.7888 14.8928 30.7888 14.0054C30.7888 13.9025 30.6988 13.8125 30.5959 13.8125C30.493 13.8125 30.403 13.9025 30.403 14.0054C30.403 14.8542 30.2744 15.6902 30.03 16.4876C30.0043 16.5904 30.0557 16.6933 30.1586 16.7319C30.1715 16.7448 30.1972 16.7448 30.2101 16.7448Z" fill="#007FFF"/>
<path d="M13.6582 12.4879C13.7483 12.4879 13.8254 12.4236 13.8512 12.3335C14.237 10.4687 15.253 8.78394 16.7191 7.56216C16.7963 7.49786 16.8091 7.36925 16.7448 7.29208C16.6805 7.21492 16.5519 7.20206 16.4748 7.26636C14.9315 8.53958 13.864 10.3144 13.4653 12.2564C13.4396 12.3593 13.5168 12.4621 13.6197 12.4879C13.6325 12.475 13.6454 12.4879 13.6582 12.4879Z" fill="#007FFF"/>
<path d="M0.102847 18.5839C6.03169 19.8443 7.72932 14.5327 15.7288 18.5839V8.44955C9.77419 6.61045 6.17316 9.36267 0.102847 8.44955L2.34064 13.4653L0.102847 18.5839Z" fill="#F34653"/>
<path d="M15.9217 33.6053H16.1918C16.4104 33.6053 16.5776 33.4381 16.5776 33.2195V7.87081C16.5776 7.65218 16.4104 7.48499 16.1918 7.48499H15.9217C15.7031 7.48499 15.5359 7.65218 15.5359 7.87081V33.2195C15.5359 33.4381 15.7031 33.6053 15.9217 33.6053Z" fill="#333846"/>
<path d="M21.3104 104.829H27.265V31.599L21.3618 31.1875L21.3104 104.829Z" fill="white"/>
<path d="M21.3104 105.022H27.2649C27.3678 105.022 27.4579 104.932 27.4579 104.829V31.5991C27.4579 31.4962 27.3807 31.419 27.2778 31.4061L21.3747 30.9946C21.3232 30.9946 21.2718 31.0075 21.2332 31.046C21.1946 31.0846 21.1689 31.1361 21.1689 31.1875L21.1046 104.829C21.1046 104.88 21.1303 104.932 21.156 104.97C21.2075 104.996 21.2589 105.022 21.3104 105.022ZM27.072 104.636H21.5033L21.5676 31.3933L27.0849 31.7791V104.636H27.072Z" fill="#333846"/>
<path d="M5.33727 104.829H21.3104C21.349 104.829 21.3747 104.79 21.3747 104.751V31.2647C21.3747 31.2132 21.349 31.1746 21.3104 31.1875L5.33727 32.0363C5.31154 32.0363 5.28583 32.0749 5.28583 32.1135V104.739C5.27296 104.79 5.29868 104.829 5.33727 104.829Z" fill="#F8949B"/>
<path d="M5.33725 105.022H21.3104C21.4519 105.022 21.5676 104.906 21.5676 104.751V31.2775C21.5676 31.2004 21.5419 31.1232 21.4776 31.0718C21.4262 31.0203 21.3619 31.0074 21.2976 31.0074L5.3244 31.8563C5.19579 31.8691 5.08004 31.9849 5.08004 32.1263V104.751C5.08004 104.893 5.19579 105.022 5.33725 105.022ZM21.1689 104.636H5.46586V32.2164L21.1689 31.3933V104.636Z" fill="#333846"/>
<path d="M41.399 104.829H47.3279V50.1701L41.4248 48.3053L41.399 104.829Z" fill="white"/>
<path d="M41.399 105.022H47.3279C47.4308 105.022 47.5208 104.932 47.5208 104.829V50.1702C47.5208 50.0802 47.4693 50.0159 47.3922 49.9901L41.4891 48.1253C41.4247 48.1125 41.3604 48.1125 41.3219 48.151C41.2704 48.1896 41.2447 48.2411 41.2447 48.3054L41.2061 104.829C41.2061 104.88 41.2318 104.932 41.2576 104.97C41.2961 105.009 41.3476 105.022 41.399 105.022ZM47.135 104.636H41.5919L41.6177 48.5626L47.135 50.2988V104.636Z" fill="#333846"/>
<path d="M25.3873 104.829H41.3605C41.3991 104.829 41.4248 104.803 41.4248 104.764V48.3696C41.4248 48.331 41.3991 48.3053 41.3605 48.3053L25.3873 48.9483C25.3616 48.9483 25.3359 48.9741 25.3359 49.0126V104.764C25.3359 104.803 25.3616 104.829 25.3873 104.829Z" fill="#F8949B"/>
<path d="M25.3873 105.022H41.3605C41.5019 105.022 41.6177 104.906 41.6177 104.764V48.3696C41.6177 48.3053 41.592 48.2281 41.5405 48.1767C41.4891 48.1252 41.4248 48.0995 41.3605 48.1124L25.3873 48.7554C25.2458 48.7554 25.1429 48.8712 25.1429 49.0126V104.764C25.1429 104.906 25.2587 105.022 25.3873 105.022ZM41.2319 104.636H25.5288V49.1412L41.2319 48.511V104.636Z" fill="#333846"/>
<path d="M61.3333 104.829H67.2365V73.4096L61.3333 72.1235V104.829Z" fill="white"/>
<path d="M61.3333 105.022H67.2364C67.3393 105.022 67.4294 104.932 67.4294 104.829V73.4096C67.4294 73.3196 67.365 73.2424 67.275 73.2167L61.3719 71.9178C61.3205 71.9049 61.2562 71.9178 61.2047 71.9563C61.1533 71.9949 61.1275 72.0464 61.1275 72.1107V104.829C61.1404 104.944 61.2304 105.022 61.3333 105.022ZM67.0435 104.636H61.5262V72.355L67.0435 73.5639V104.636Z" fill="#333846"/>
<path d="M45.2444 104.829H61.3333V72.1878C61.3333 72.1493 61.3076 72.1235 61.269 72.1235L45.2444 72.6637V104.829Z" fill="#F8949B"/>
<path d="M45.0515 105.022H61.5262V72.1878C61.5262 72.1235 61.5005 72.0464 61.4491 72.0078C61.3976 71.9563 61.3333 71.9306 61.2562 71.9306L45.0515 72.4708V105.022ZM61.1404 104.636H45.4373V72.8437L61.1404 72.3164V104.636Z" fill="#333846"/>
<path d="M81.1647 104.829H87.1193V89.2542L81.229 88.0838L81.1647 104.829Z" fill="white"/>
<path d="M81.1647 105.022H87.1193C87.2222 105.022 87.3122 104.932 87.3122 104.829V89.2542C87.3122 89.1642 87.2479 89.087 87.1579 89.0613L81.2548 87.9038C81.2033 87.891 81.139 87.9038 81.1004 87.9424C81.0619 87.981 81.0361 88.0324 81.0361 88.0968L80.9847 104.842C80.9847 104.893 81.0104 104.944 81.0361 104.983C81.0747 105.009 81.1133 105.022 81.1647 105.022ZM86.9264 104.636H81.3577L81.4091 88.3154L86.9264 89.4086V104.636Z" fill="#333846"/>
<path d="M65.1915 104.829H81.1647C81.1904 104.829 81.2161 104.803 81.2161 104.777V88.1481C81.2161 88.1224 81.1904 88.0967 81.1647 88.0967L65.1915 88.3539C65.1658 88.3539 65.1401 88.3796 65.1401 88.4054V104.777C65.1401 104.803 65.1658 104.829 65.1915 104.829Z" fill="#F8949B"/>
<path d="M65.1915 105.022H81.1647C81.3062 105.022 81.4091 104.906 81.4091 104.777V88.1481C81.4091 88.0838 81.3833 88.0195 81.3319 87.9681C81.2804 87.9166 81.2161 87.8909 81.1518 87.8909L65.1787 88.1481C65.0372 88.1481 64.9343 88.2639 64.9343 88.3925V104.764C64.9472 104.919 65.0501 105.022 65.1915 105.022ZM81.0361 104.636H65.333V88.534L81.0361 88.2767V104.636Z" fill="#333846"/>
<path d="M101.009 104.829H106.964V96.6749L101.06 95.6717L101.009 104.829Z" fill="white"/>
<path d="M101.009 105.022H106.964C107.066 105.022 107.156 104.932 107.156 104.829V96.662C107.156 96.572 107.092 96.482 106.989 96.4691L101.086 95.4788C101.035 95.466 100.97 95.4788 100.932 95.5174C100.893 95.556 100.868 95.6074 100.868 95.6589L100.816 104.816C100.816 104.867 100.842 104.919 100.868 104.957C100.906 105.009 100.958 105.022 101.009 105.022ZM106.771 104.636H101.202L101.253 95.9032L106.771 96.8421V104.636Z" fill="#333846"/>
<path d="M85.0358 104.829H101.009C101.035 104.829 101.06 104.816 101.06 104.803V95.7103C101.06 95.6974 101.035 95.6846 101.009 95.6846L85.0358 95.826C85.0101 95.826 84.9844 95.8389 84.9844 95.8518V104.803C84.9715 104.816 84.9972 104.829 85.0358 104.829Z" fill="#F8949B"/>
<path d="M85.0358 105.022H101.009C101.15 105.022 101.253 104.919 101.253 104.803V95.7103C101.253 95.6589 101.228 95.5946 101.189 95.556C101.138 95.5045 101.073 95.4788 100.996 95.4788L85.0101 95.6203C84.8686 95.6203 84.7657 95.7232 84.7657 95.8389V104.79C84.7786 104.932 84.8943 105.022 85.0358 105.022ZM100.868 104.636H85.1644V96.0061L100.868 95.8646V104.636Z" fill="#333846"/>
<path d="M83.4668 79.6728L84.0584 84.8429L81.8592 85.756L81.0489 80.123L83.4668 79.6728Z" fill="white"/>
<path d="M81.8592 85.9489C81.8849 85.9489 81.9106 85.9489 81.9363 85.9361L84.1355 85.023C84.2127 84.9844 84.2642 84.9072 84.2513 84.8172L83.6726 79.6471C83.6726 79.5957 83.634 79.5442 83.5954 79.5185C83.5568 79.4928 83.4925 79.4799 83.4411 79.4799L81.0104 79.9301C80.9075 79.9429 80.8432 80.0458 80.856 80.1487L81.6663 85.7817C81.6791 85.846 81.7049 85.8975 81.7563 85.9232C81.782 85.9489 81.8206 85.9489 81.8592 85.9489ZM83.8397 84.7143L82.0007 85.4731L81.2547 80.2644L83.2996 79.8915L83.8397 84.7143Z" fill="#333846"/>
<path d="M84.56 84.3542C84.6243 84.8429 84.74 85.756 84.7529 86.5663C84.7529 87.0807 84.3799 87.5051 83.8655 87.5694C82.4251 87.7495 79.1713 87.9552 76.3933 87.698C76.2004 87.6852 75.866 87.5437 75.776 87.0678C75.4673 85.4731 78.2324 85.0873 81.2676 83.9298C81.3833 83.8783 81.5248 83.9169 81.6148 83.9941L81.9363 84.3156C82.2579 84.6371 82.7466 84.7272 83.171 84.5471L84.1613 84.1227C84.3542 84.0584 84.5342 84.1741 84.56 84.3542Z" fill="#A3D1FF"/>
<path d="M79.287 88.0195C81.1518 88.0195 82.9009 87.8909 83.8912 87.7623C84.4957 87.6851 84.9586 87.1707 84.9458 86.5534C84.9329 85.7174 84.8172 84.7915 84.7529 84.3156C84.7271 84.1741 84.65 84.0455 84.5214 83.9684C84.3928 83.8912 84.2384 83.8912 84.1098 83.9426L83.1195 84.3671C82.7723 84.5214 82.3736 84.4442 82.0907 84.1741L81.7692 83.8526C81.6277 83.7111 81.4091 83.6726 81.2161 83.7369C80.5088 84.0069 79.8272 84.2256 79.1713 84.4442C77.0235 85.1516 75.3259 85.7046 75.6088 87.0935C75.7117 87.6337 76.0975 87.8523 76.4062 87.8781C77.3322 87.9938 78.3225 88.0195 79.287 88.0195ZM84.3799 84.3799C84.4442 84.8558 84.56 85.756 84.5728 86.5663C84.5728 86.9778 84.2642 87.325 83.8526 87.3765C82.3736 87.5694 79.1713 87.7623 76.4319 87.5051C76.3676 87.5051 76.0718 87.4537 75.9818 87.0292C75.7889 86.0261 77.0492 85.5631 79.287 84.8172C79.9429 84.5985 80.6374 84.3799 81.3448 84.097C81.3962 84.0841 81.4476 84.0841 81.4862 84.1227L81.8077 84.4442C82.1936 84.8172 82.7594 84.9201 83.2482 84.7143L84.2384 84.2899C84.277 84.277 84.3027 84.2899 84.3156 84.2899C84.3413 84.3285 84.367 84.3413 84.3799 84.3799Z" fill="#333846"/>
<path d="M84.7529 86.4505C84.7529 86.4505 84.7529 86.5277 84.7529 86.5791C84.7529 87.0936 84.3799 87.518 83.8655 87.5823C82.4251 87.7623 79.1713 87.9681 76.3933 87.7109C76.2004 87.698 75.866 87.5565 75.776 87.0807C75.7503 86.9392 75.7631 86.6692 75.7631 86.6692L75.9561 86.682C78.7597 86.8235 81.5634 86.7592 84.367 86.4762L84.7529 86.4505Z" fill="white"/>
<path d="M79.287 88.0195C81.1518 88.0195 82.9009 87.8909 83.8912 87.7623C84.4957 87.6852 84.9586 87.1707 84.9458 86.5534V86.4248C84.9458 86.3734 84.9201 86.3219 84.8815 86.2833C84.8429 86.2448 84.7915 86.2319 84.74 86.2319L84.367 86.2705C81.5891 86.5405 78.7726 86.6049 75.9818 86.4762L75.7889 86.4634C75.686 86.4505 75.596 86.5405 75.5831 86.6434C75.5831 86.6692 75.5702 86.9392 75.596 87.1064C75.6988 87.6466 76.0847 87.8652 76.3933 87.8909C77.3322 87.9938 78.3225 88.0195 79.287 88.0195ZM84.56 86.6563C84.5214 87.0293 84.2256 87.3379 83.8398 87.3894C82.3608 87.5823 79.1584 87.7752 76.4191 87.518C76.3547 87.518 76.0589 87.4665 75.9689 87.0421C75.9561 87.0035 75.9561 86.9392 75.9561 86.8749C78.7597 87.0164 81.602 86.9392 84.3928 86.6692L84.56 86.6563Z" fill="#333846"/>
<path d="M80.5731 85.8589C80.6246 85.8589 80.676 85.846 80.7146 85.8075C80.7918 85.7303 80.7918 85.6145 80.7146 85.5374L79.6471 84.4699C79.57 84.3928 79.4542 84.3928 79.3771 84.4699C79.2999 84.5471 79.2999 84.6629 79.3771 84.74L80.4445 85.8075C80.4831 85.8332 80.5345 85.8589 80.5731 85.8589Z" fill="#333846"/>
<path d="M79.5314 85.9747C79.5828 85.9747 79.6214 85.9618 79.66 85.9232C79.7372 85.846 79.7372 85.7303 79.66 85.6531L78.8112 84.7657C78.734 84.6886 78.6183 84.6886 78.5411 84.7657C78.4639 84.8429 78.4639 84.9586 78.5411 85.0358L79.3899 85.9232C79.4285 85.9489 79.4799 85.9747 79.5314 85.9747Z" fill="#333846"/>
<path d="M75.4802 45.5916C75.4802 45.5916 76.8177 46.3633 77.345 50.9289C77.8723 55.4816 77.6923 60.8574 81.3319 66.1818C84.2384 70.4388 83.9812 77.6151 84.4056 82.3222C84.4314 82.5537 84.2513 82.7466 84.0198 82.7594L81.229 82.8495C81.049 82.8495 80.8946 82.7466 80.8432 82.5794C80.3416 81.0361 77.8723 73.6025 75.0815 69.2813C72.1364 64.7285 68.5611 52.8837 68.5611 52.8837C68.5611 52.8837 69.2298 49.8871 69.3199 47.032C69.4228 44.1641 75.4802 45.5916 75.4802 45.5916Z" fill="#333846"/>
<path d="M59.0698 64.3299L60.253 69.397L58.1695 70.5674L56.7162 65.0629L59.0698 64.3299Z" fill="white"/>
<path d="M58.1695 70.7603C58.2081 70.7603 58.2338 70.7474 58.2595 70.7346L60.343 69.5771C60.4202 69.5385 60.4587 69.4485 60.433 69.3713L59.2627 64.3041C59.2498 64.2527 59.2112 64.2013 59.1726 64.1755C59.1212 64.1498 59.0698 64.1369 59.0183 64.1627L56.6648 64.8829C56.5619 64.9086 56.5105 65.0115 56.5362 65.1144L57.9895 70.6188C58.0023 70.6703 58.0409 70.7217 58.1052 70.7474C58.1181 70.7474 58.1438 70.7603 58.1695 70.7603ZM60.0343 69.307L58.2981 70.2716L56.9606 65.1787L58.9412 64.5742L60.0343 69.307Z" fill="#333846"/>
<path d="M60.4973 69.1012C60.5616 69.59 61.0117 70.5159 61.0117 71.339C61.0117 71.8535 60.6388 72.2779 60.1243 72.3422C58.6839 72.5222 55.1086 72.7023 52.3307 72.4579C52.1378 72.4451 51.8034 72.3036 51.7134 71.8277C51.4047 70.233 54.1698 69.8472 57.2049 68.6897C57.3207 68.6383 57.4622 68.6768 57.5522 68.754L57.8737 69.0755C58.1952 69.397 58.6839 69.4871 59.1083 69.307L60.0986 68.8826C60.2787 68.8054 60.4716 68.9212 60.4973 69.1012Z" fill="#A3D1FF"/>
<path d="M55.443 72.7794C57.3207 72.7794 59.1469 72.6766 60.1501 72.5351C60.7545 72.4579 61.2175 71.9435 61.2047 71.3262C61.2047 70.786 61.0118 70.1944 60.8703 69.7314C60.7803 69.4613 60.716 69.2299 60.6902 69.0627C60.6645 68.9212 60.5873 68.7926 60.4587 68.7154C60.3301 68.6383 60.1758 68.6382 60.0472 68.6897L59.0569 69.1141C58.7097 69.2684 58.311 69.1913 58.028 68.9212L57.7065 68.5997C57.565 68.4582 57.3464 68.4196 57.1535 68.4839C56.4462 68.754 55.7645 68.9726 55.1086 69.1913C52.9609 69.8986 51.2632 70.4516 51.5462 71.8406C51.6491 72.3808 52.0349 72.5994 52.3435 72.6251C53.2824 72.7409 54.3756 72.7794 55.443 72.7794ZM60.3044 69.127C60.3301 69.3199 60.4073 69.5642 60.4973 69.86C60.6388 70.3102 60.8188 70.8632 60.8188 71.339C60.8188 71.7506 60.5102 72.0978 60.0986 72.1493C58.7997 72.3165 55.1858 72.5222 52.3435 72.265C52.2792 72.265 51.9834 72.2136 51.8934 71.7892C51.7005 70.786 52.9609 70.323 55.1987 69.5771C55.8546 69.3585 56.549 69.1398 57.2564 68.8569C57.3078 68.844 57.3593 68.844 57.3979 68.8826L57.7194 69.2041C58.1052 69.5771 58.6711 69.68 59.1598 69.4742L60.1501 69.0498C60.1887 69.0369 60.2144 69.0498 60.2272 69.0498C60.2787 69.0755 60.3044 69.0884 60.3044 69.127Z" fill="#333846"/>
<path d="M60.9346 71.1847C60.9346 71.1847 60.9346 71.2619 60.9346 71.3133C60.9346 71.8277 60.5616 72.2521 60.0472 72.3164C58.6068 72.4965 55.0958 72.7151 52.3307 72.4708C52.1378 72.4579 51.8034 72.3164 51.7134 71.8406C51.6876 71.6991 51.7005 71.4291 51.7005 71.4291L51.8934 71.4419C54.6971 71.5834 57.5007 71.5191 60.3044 71.2361L60.9346 71.1847Z" fill="white"/>
<path d="M55.1729 72.7666C57.2564 72.7666 59.1984 72.6123 60.0729 72.4965C60.6774 72.4193 61.1403 71.9049 61.1275 71.2876V71.159C61.1275 71.1075 61.1018 71.0561 61.0632 71.0175C61.0246 70.9789 60.9732 70.9661 60.9217 70.9661L60.2915 71.0175C57.5136 71.2876 54.6971 71.3519 51.9063 71.2233L51.7134 71.2104C51.6105 71.1976 51.5204 71.2876 51.5076 71.3905C51.5076 71.4162 51.4947 71.6863 51.5204 71.8535C51.6233 72.3936 52.0092 72.6123 52.3178 72.638C53.2438 72.7409 54.2212 72.7666 55.1729 72.7666ZM60.7417 71.3905C60.7031 71.7634 60.4073 72.0721 60.0215 72.1235C58.7611 72.2907 55.2372 72.5351 52.3435 72.265C52.2792 72.265 51.9834 72.2136 51.8934 71.7892C51.8805 71.7506 51.8805 71.6863 51.8805 71.622C54.6842 71.7634 57.5264 71.6863 60.3173 71.4162L60.7417 71.3905Z" fill="#333846"/>
<path d="M56.5105 70.6059C56.5619 70.6059 56.6134 70.5931 56.6519 70.5545C56.7291 70.4773 56.7291 70.3616 56.6519 70.2844L55.5845 69.217C55.5073 69.1398 55.3916 69.1398 55.3144 69.217C55.2372 69.2941 55.2372 69.4099 55.3144 69.4871L56.3819 70.5545C56.4204 70.5802 56.459 70.6059 56.5105 70.6059Z" fill="#333846"/>
<path d="M55.4687 70.7088C55.5202 70.7088 55.5588 70.696 55.5973 70.6574C55.6745 70.5802 55.6745 70.4645 55.5973 70.3873L54.7485 69.4999C54.6714 69.4228 54.5556 69.4228 54.4784 69.4999C54.4013 69.5771 54.4013 69.6928 54.4784 69.77L55.3273 70.6574C55.3658 70.696 55.4173 70.7088 55.4687 70.7088Z" fill="#333846"/>
<path d="M70.1173 53.6811C70.1173 53.6811 63.854 53.1924 56.8706 49.437C56.6648 49.3213 56.5362 49.6685 56.652 49.8614C56.9992 50.4144 57.1921 51.2504 57.7194 52.678C58.3625 54.427 59.7257 63.4939 60.1758 66.3233C60.2144 66.5805 60.0215 66.812 59.7643 66.8249L57.0764 66.9149C56.9092 66.9149 56.7549 66.8249 56.6777 66.6705C55.7131 64.6514 49.3856 48.7554 49.6171 45.7974C49.8743 42.5951 53.5268 42.8137 55.0572 42.7108C56.6391 42.6079 70.9275 45.283 70.9275 45.283L70.1173 53.6811Z" fill="#333846"/>
<path d="M89.1513 49.0126C88.9327 48.7554 88.6497 48.4467 88.4182 48.2152C88.1096 47.9066 87.0679 45.8874 87.0679 45.8874L85.2545 46.4019C85.2545 46.4019 86.1033 47.8937 85.8975 48.6268C85.7046 49.3213 85.5631 50.7745 86.5663 51.8291C86.682 51.9449 86.9392 51.9835 87.0293 51.9577C87.2865 51.8934 87.2993 51.5333 87.1707 51.289L86.8106 50.6202C86.7849 50.5559 86.8235 50.4916 86.8878 50.5045C87.1579 50.543 87.7623 50.7231 88.3925 51.4947C88.8812 52.0863 89.8329 53.4239 90.1545 53.2052C90.7203 52.8066 90.3345 50.4273 89.1513 49.0126Z" fill="white"/>
<path d="M90.0644 53.411C90.1287 53.411 90.193 53.3853 90.2573 53.3467C90.4245 53.231 90.5403 52.9995 90.5789 52.678C90.7075 51.7391 90.2573 50.0158 89.3056 48.8712C89.087 48.6139 88.8041 48.3053 88.5597 48.0609C88.3539 47.8552 87.6466 46.5562 87.2479 45.7846C87.2093 45.7074 87.1064 45.656 87.0293 45.6817L85.2159 46.1961C85.1644 46.209 85.113 46.2476 85.0873 46.3119C85.0616 46.3633 85.0744 46.4276 85.1001 46.479C85.3316 46.8777 85.8718 48.0095 85.7303 48.5625C85.4602 49.5528 85.4988 50.9546 86.4505 51.9449C86.6306 52.125 86.9521 52.1635 87.0936 52.1378C87.235 52.0992 87.3508 52.0092 87.4151 51.8677C87.5051 51.6748 87.4794 51.4047 87.3637 51.1861L87.1193 50.736C87.4022 50.826 87.8266 51.0575 88.2639 51.5977C88.3411 51.6877 88.4182 51.7906 88.5083 51.9063C89.1642 52.8066 89.6786 53.411 90.0644 53.411ZM89.0098 49.1412C89.8715 50.1572 90.3216 51.7777 90.193 52.6394C90.1673 52.8323 90.1159 52.9609 90.0387 53.0252C89.7943 52.9866 89.0741 52.0735 88.7655 51.6748C88.6755 51.5591 88.5854 51.4562 88.5211 51.3662C87.8652 50.5559 87.2222 50.3502 86.9007 50.3116C86.7978 50.2987 86.6949 50.3373 86.6306 50.4273C86.5663 50.5174 86.5663 50.6202 86.6177 50.7103L86.9778 51.379C87.0421 51.4819 87.055 51.6362 87.0164 51.7134C87.0035 51.7391 86.9907 51.752 86.965 51.7649C86.9135 51.7777 86.7463 51.7391 86.6949 51.6877C85.6146 50.5559 85.9875 48.974 86.0776 48.6654C86.2576 48.0223 85.7689 46.9678 85.5246 46.5048L86.9521 46.0932C87.2093 46.5819 87.981 48.0481 88.2639 48.331C88.5211 48.5882 88.8041 48.884 89.0098 49.1412Z" fill="#333846"/>
<path d="M45.6045 26.1718L46.7749 24.1912C46.9678 23.8697 47.5722 23.7668 47.8809 23.9983C54.5171 28.9497 61.5777 26.9306 62.658 26.6605C65.3588 26.0174 66.722 25.9146 68.8569 25.7859C71.9821 25.593 76.4834 27.4064 79.5057 30.4287C81.9107 32.8337 86.0133 40.6402 87.8781 46.0675C87.9553 46.299 87.8524 46.5433 87.6466 46.6591L85.7818 47.6236C85.5503 47.7523 85.2545 47.6622 85.1259 47.4179C84.1742 45.6302 80.0587 38.1967 75.7503 35.7531C75.4288 35.573 74.953 35.766 74.9787 36.1261C75.0301 37.2707 75.7503 41.5019 75.9561 45.4244C75.9818 45.9389 75.6217 46.4019 75.1201 46.4919L73.2296 46.8391C69.9372 47.6108 66.8635 46.7491 65.5002 46.2733C65.0887 46.1189 64.8829 45.7202 64.8186 45.283C64.7157 44.5628 63.2496 38.7497 60.5874 34.9043C60.253 34.4156 59.7386 34.0812 59.1599 34.0555C56.7806 33.914 50.0287 32.9623 45.6174 26.7891C45.5145 26.609 45.5016 26.3647 45.6045 26.1718Z" fill="#007FFF"/>
<path d="M47.225 24.7957C47.2507 24.6542 47.1993 24.4999 47.0835 24.397C46.9292 24.2684 46.6848 24.0497 46.3119 23.7282C45.6688 23.1623 44.8457 22.0306 44.1384 21.6833C43.431 21.3489 40.8589 20.3458 40.4473 20.5516C40.0358 20.7702 40.2416 21.2461 40.8203 21.529C41.399 21.8119 42.1578 22.0949 42.1578 22.0949C42.1578 22.0949 41.7334 22.0692 41.4247 22.5579C41.1161 23.0466 41.5405 23.2395 41.3604 23.4838C41.1289 23.7925 41.1933 24.1526 41.3862 24.3198C41.8106 24.6799 42.325 23.9726 42.7108 24.7056C42.9809 25.2201 43.6111 25.5544 44.8843 25.7988C45.2316 25.8631 45.5531 25.9917 45.8489 26.1846C45.9775 26.2618 46.1318 26.2618 46.2476 26.1975C46.5562 26.0303 47.0835 25.6187 47.225 24.7957Z" fill="white"/>
<path d="M46.0675 26.4418C46.1704 26.4418 46.2604 26.4161 46.3505 26.3647C46.6848 26.1718 47.2636 25.7216 47.4179 24.8214C47.4565 24.6027 47.3793 24.3841 47.2121 24.2555C47.0578 24.1269 46.8134 23.9083 46.4405 23.5867C46.209 23.3938 45.9646 23.1109 45.6946 22.8279C45.2058 22.3007 44.7043 21.7476 44.2284 21.5161C44.2027 21.5033 40.9746 20.0757 40.3702 20.3844C40.1644 20.4873 40.0486 20.6673 40.0486 20.8731C40.0486 21.1818 40.3187 21.5033 40.7431 21.6962C41.0261 21.8377 41.3605 21.9791 41.6177 22.082C41.5019 22.1592 41.3733 22.2878 41.2704 22.455C41.0389 22.8151 41.129 23.0723 41.1933 23.2395C41.2318 23.3552 41.2318 23.3552 41.219 23.3681C40.9232 23.7668 41.0132 24.2426 41.2704 24.4613C41.5276 24.6799 41.7977 24.6156 42.0035 24.577C42.2607 24.5256 42.3893 24.4999 42.5437 24.7957C42.8523 25.3744 43.5339 25.7345 44.8457 25.9917C45.1544 26.056 45.4631 26.1718 45.746 26.3518C45.8489 26.4161 45.9518 26.4418 46.0675 26.4418ZM40.6402 20.7188C41.1804 20.7188 43.2124 21.4647 44.0484 21.8634C44.4599 22.0692 44.9358 22.5836 45.3988 23.0852C45.6688 23.381 45.926 23.6639 46.1704 23.8825C46.5434 24.2041 46.7877 24.4227 46.9421 24.5513C47.0064 24.6027 47.0321 24.6799 47.0192 24.7699C46.8906 25.5159 46.4148 25.8888 46.1447 26.0432C46.0804 26.0817 46.0032 26.0817 45.9389 26.0303C45.6174 25.8245 45.2701 25.6959 44.91 25.6187C43.7268 25.3873 43.1224 25.0915 42.878 24.6285C42.5951 24.0754 42.1835 24.1526 41.9263 24.2169C41.7334 24.2555 41.6177 24.2812 41.5148 24.1912C41.4119 24.1012 41.3476 23.8568 41.5276 23.6253C41.6691 23.4453 41.6048 23.2524 41.5534 23.1366C41.5019 22.9951 41.4633 22.8922 41.5919 22.6865C41.8363 22.3007 42.1578 22.3135 42.1578 22.3135C42.2479 22.3135 42.3379 22.2492 42.3636 22.1592C42.3893 22.0692 42.3379 21.9663 42.2478 21.9405C42.235 21.9405 41.4891 21.6576 40.9232 21.3747C40.5888 21.2203 40.4473 21.0146 40.4473 20.886C40.4473 20.8602 40.4473 20.7959 40.5631 20.7445C40.5759 20.7188 40.6017 20.7188 40.6402 20.7188Z" fill="#333846"/>
<path d="M64.3685 20.4358L67.8795 26.2489C67.931 26.3132 68.4454 26.3003 69.0241 26.3518C69.2942 26.3775 69.5771 26.4161 69.8086 26.4547C70.0015 26.4804 70.053 26.7376 69.8987 26.8405L69.2685 27.252C67.9567 28.1266 66.3877 28.5767 64.8058 28.4738C64.3685 28.4481 63.9441 28.3709 63.5711 28.2552L62.2207 27.8308C62.015 27.7665 62.015 27.4835 62.2207 27.4192L63.9312 26.9048L62.4908 23.8311L64.3685 20.4358Z" fill="white"/>
<path d="M65.2687 28.6925C66.6963 28.6925 68.1367 28.2552 69.3842 27.4321L70.0144 27.0206C70.1558 26.9306 70.2202 26.7634 70.1816 26.5962C70.143 26.429 70.0144 26.3004 69.8472 26.2747C69.5514 26.2232 69.2813 26.1846 69.0498 26.1718C68.8055 26.146 68.574 26.1332 68.3939 26.1203C68.2524 26.1075 68.0981 26.1075 68.021 26.0946L64.5485 20.3329C64.5099 20.2686 64.4456 20.2429 64.3813 20.2429C64.317 20.2429 64.2527 20.2815 64.2141 20.3458L62.3493 23.7668C62.3236 23.8182 62.3236 23.8825 62.3493 23.9468L63.6868 26.8019L62.195 27.2521C62.0278 27.3035 61.9121 27.4578 61.8992 27.6379C61.8992 27.818 62.0149 27.9723 62.1821 28.0237L63.5325 28.4481C63.9055 28.5639 64.3428 28.641 64.8057 28.6668C64.9601 28.6925 65.1144 28.6925 65.2687 28.6925ZM64.3813 20.8217L67.7123 26.3518C67.7123 26.3518 67.7123 26.3647 67.7251 26.3647C67.8023 26.4804 67.9438 26.4804 68.3682 26.5061C68.5482 26.519 68.7797 26.5319 69.0112 26.5447C69.2427 26.5704 69.4999 26.609 69.7957 26.6476C69.7957 26.6476 69.8086 26.6476 69.8086 26.6605C69.8086 26.6733 69.8086 26.6862 69.7957 26.6862L69.1656 27.0977C67.8538 27.9594 66.3233 28.3838 64.8315 28.2809C64.3942 28.2552 63.9955 28.1781 63.6483 28.0752L62.3107 27.6508C62.2979 27.6508 62.2979 27.6508 62.2979 27.625C62.2979 27.6122 62.3107 27.6122 62.3107 27.5993L64.0212 27.0849C64.0727 27.072 64.1241 27.0334 64.137 26.982C64.1627 26.9306 64.1627 26.8663 64.137 26.8277L62.7351 23.844L64.3813 20.8217Z" fill="#333846"/>
<path d="M62.8123 23.9726C62.6323 23.9983 62.4394 23.9983 62.2464 23.9983L61.8992 23.9854C61.8992 23.9854 59.9058 23.7282 59.5971 23.2266C59.2756 22.7379 59.9572 20.9503 59.9572 20.9503C59.6486 20.7059 59.5843 20.4101 59.6486 20.3072C59.7129 20.2043 60.163 20.05 60.343 19.9214C60.4845 19.8185 60.8189 18.9568 60.9604 18.5839C60.9604 18.5839 61.2176 17.1306 63.5454 17.3235C68.8826 17.7608 65.0501 22.6993 65.0501 22.6993C64.9729 22.7894 64.8829 22.8923 64.7929 22.9694L62.8123 23.9726Z" fill="white"/>
<path d="M62.4008 24.1912C62.6966 24.1912 62.9924 24.1526 63.2882 24.0755C63.3911 24.0498 63.4554 23.934 63.4168 23.844C63.3911 23.7411 63.2882 23.6768 63.1853 23.7154C62.8895 23.8054 62.568 23.8311 62.2465 23.8183L61.9121 23.8054C61.1276 23.7025 59.9315 23.4196 59.7515 23.1366C59.5714 22.8537 59.8543 21.7348 60.1244 21.0275C60.1501 20.9503 60.1244 20.8603 60.0601 20.8088C59.8672 20.6545 59.8029 20.4873 59.8029 20.423C59.8543 20.3844 59.9829 20.333 60.0601 20.2944C60.2016 20.2301 60.3431 20.1658 60.4331 20.0886C60.5745 19.9857 60.7546 19.6128 61.1147 18.6739C61.1147 18.6611 61.1276 18.6482 61.1276 18.6353C61.1404 18.5839 61.3976 17.3621 63.5068 17.5293C64.8058 17.6322 65.6289 18.0052 65.9632 18.6225C66.5291 19.6771 65.616 21.2847 65.0758 22.2364L65.0244 22.3264C64.9729 22.4164 64.9987 22.5322 65.1016 22.5836C65.1916 22.6351 65.3073 22.6093 65.3588 22.5065L65.4102 22.4164C65.989 21.3876 66.9535 19.6771 66.2976 18.4296C65.8989 17.6836 64.9729 17.2464 63.5325 17.1306C61.2176 16.9377 60.7932 18.3267 60.7417 18.5325C60.3816 19.4584 60.253 19.7157 60.1887 19.7671C60.1244 19.8057 59.9958 19.87 59.8801 19.9343C59.6486 20.05 59.52 20.1143 59.4557 20.2044C59.3399 20.3844 59.4042 20.7317 59.7 21.0146C59.52 21.5033 59.0956 22.8537 59.4042 23.3424C59.7515 23.8826 61.5005 24.1398 61.8478 24.1912H61.8606L62.2079 24.2041C62.285 24.1912 62.3493 24.1912 62.4008 24.1912Z" fill="#333846"/>
<path d="M64.6128 16.6805C64.0341 16.5647 63.3653 16.6547 63.0824 16.5647C62.6194 16.4104 62.6322 15.8831 61.9892 15.8317C61.4233 15.7802 60.896 15.896 60.6131 16.3204C60.5617 16.3975 60.5231 16.4747 60.4845 16.5647C60.0344 17.7865 60.6517 18.3781 60.9218 18.571C60.9218 18.571 62.6451 19.407 62.9538 19.6385C63.2367 19.8571 63.5582 20.3972 63.3782 21.156C63.3525 21.2589 63.4039 21.3618 63.4939 21.4133C63.5968 21.4776 63.7254 21.439 63.8026 21.349C64.0212 21.0403 64.4842 20.4358 64.8315 20.5773C65.243 20.7445 65.3716 21.7605 64.6257 22.0177C64.3942 22.0949 64.317 22.3907 64.4842 22.5707C64.6257 22.7122 64.8315 22.8151 65.153 22.7379C65.153 22.7379 67.0178 21.4133 67.2364 19.6642C67.4679 17.9151 65.3845 16.8348 64.6128 16.6805Z" fill="#333846"/>
<path d="M47.0835 5.83876C47.2893 5.83876 47.495 5.77446 47.6751 5.65871C47.9066 5.50438 48.0481 5.26002 48.0995 4.98995C48.1509 4.71987 48.0866 4.44979 47.9323 4.2183C47.6108 3.75531 46.9677 3.63956 46.4919 3.96108C46.2604 4.11541 46.1189 4.35977 46.0675 4.62984C46.016 4.89992 46.0804 5.17 46.2347 5.40149C46.389 5.63299 46.6334 5.77446 46.9034 5.8259C46.9549 5.8259 47.0192 5.83876 47.0835 5.83876ZM47.0706 4.15399C47.2764 4.15399 47.4822 4.25688 47.5979 4.43693C47.7008 4.5784 47.7394 4.74559 47.7008 4.92564C47.6751 5.09283 47.5722 5.24716 47.4307 5.33719C47.1349 5.54296 46.7363 5.4658 46.5305 5.17C46.4276 5.02853 46.389 4.86134 46.4276 4.68129C46.4533 4.5141 46.5562 4.35977 46.6977 4.26974C46.8134 4.19258 46.942 4.15399 47.0706 4.15399Z" fill="#333846"/>
<path d="M40.8331 6.91906C40.8845 6.91906 40.936 6.89333 40.9746 6.85475C41.0389 6.77759 41.0389 6.64898 40.9488 6.58467L40.3315 6.05738C40.2544 5.99308 40.1258 5.99308 40.0614 6.0831C39.9971 6.16027 39.9971 6.28887 40.0872 6.35318L40.7045 6.88047C40.7431 6.90619 40.7945 6.91906 40.8331 6.91906Z" fill="#333846"/>
<path d="M42.8008 8.59096C42.8523 8.59096 42.9037 8.56524 42.9423 8.52666C43.0066 8.44949 43.0066 8.32088 42.9166 8.25658L42.2993 7.72929C42.2221 7.66498 42.0935 7.66498 42.0292 7.75501C41.9649 7.83217 41.9649 7.96078 42.0549 8.02508L42.6722 8.55238C42.7108 8.5781 42.7623 8.59096 42.8008 8.59096Z" fill="#333846"/>
<path d="M42.0806 6.81615C42.132 6.81615 42.1835 6.79043 42.2221 6.75185L42.7494 6.13453C42.8137 6.05736 42.8137 5.92875 42.7236 5.86445C42.6465 5.80014 42.5179 5.80014 42.4536 5.89017L41.9263 6.50749C41.862 6.58465 41.862 6.71326 41.952 6.77757C41.9906 6.80329 42.042 6.81615 42.0806 6.81615Z" fill="#333846"/>
<path d="M40.4087 8.78386C40.4602 8.78386 40.5116 8.75814 40.5502 8.71956L41.0775 8.10224C41.1418 8.02507 41.1418 7.89646 41.0518 7.83216C40.9746 7.76786 40.846 7.76786 40.7817 7.85788L40.2544 8.4752C40.1901 8.55237 40.1901 8.68097 40.2801 8.74528C40.3187 8.771 40.3573 8.78386 40.4087 8.78386Z" fill="#333846"/>
<path d="M92.3021 80.8174C92.405 80.8174 92.4951 80.7403 92.4951 80.6374L92.5208 79.8143C92.5208 79.7114 92.4436 79.6214 92.3407 79.6085C92.225 79.6085 92.1478 79.6857 92.135 79.7886L92.1092 80.6116C92.1092 80.7145 92.1864 80.8046 92.3021 80.8174C92.2893 80.8174 92.3021 80.8174 92.3021 80.8174Z" fill="#333846"/>
<path d="M92.1993 83.4025C92.3022 83.4025 92.3922 83.3253 92.3922 83.2224L92.4179 82.3993C92.4179 82.2964 92.3408 82.2064 92.2379 82.1935C92.1221 82.1935 92.045 82.2707 92.0321 82.3736L92.0064 83.1967C92.0064 83.2996 92.0836 83.3896 92.1993 83.4025Z" fill="#333846"/>
<path d="M93.9741 81.7563C94.077 81.7563 94.167 81.6791 94.167 81.5762C94.167 81.4733 94.0898 81.3833 93.9869 81.3704L93.1638 81.3447C93.061 81.3447 92.9709 81.4219 92.9581 81.5248C92.9581 81.6277 93.0352 81.7177 93.1381 81.7306L93.9741 81.7563C93.9612 81.7563 93.9612 81.7563 93.9741 81.7563Z" fill="#333846"/>
<path d="M91.389 81.6662C91.4919 81.6662 91.5819 81.5891 91.5819 81.4862C91.5819 81.3833 91.5048 81.2933 91.4019 81.2804L90.5788 81.2547C90.463 81.2547 90.3859 81.3319 90.373 81.4347C90.373 81.5376 90.4502 81.6276 90.5531 81.6405L91.389 81.6662C91.3762 81.6662 91.3762 81.6662 91.389 81.6662Z" fill="#333846"/>
<path d="M96.5591 69.5384C96.6363 69.5384 96.7006 69.4998 96.7391 69.4227C100.147 61.9891 101.292 53.771 100.032 45.6558C99.71 43.611 99.247 41.579 98.6426 39.6241C98.6168 39.5212 98.5011 39.4698 98.3982 39.4955C98.2953 39.5212 98.2439 39.637 98.2696 39.7399C98.874 41.6818 99.337 43.6881 99.6457 45.7202C100.893 53.7582 99.7614 61.8991 96.379 69.2683C96.3405 69.3712 96.379 69.4741 96.4691 69.5256C96.5077 69.5384 96.5334 69.5384 96.5591 69.5384Z" fill="#333846"/>
<path d="M96.0704 70.5673C96.1475 70.5673 96.2118 70.5287 96.2376 70.4644C96.4048 70.1301 96.572 69.7828 96.7263 69.4356C96.7649 69.3327 96.7263 69.2298 96.6363 69.1784C96.5334 69.1398 96.4305 69.1783 96.379 69.2684C96.2247 69.6028 96.0575 69.95 95.8903 70.2844C95.8389 70.3744 95.8775 70.4902 95.9804 70.5416C96.0189 70.5545 96.0447 70.5673 96.0704 70.5673Z" fill="#333846"/>
<path d="M98.5397 74.5285C98.604 74.5285 98.6812 74.4899 98.7069 74.4256C101.086 69.77 102.668 64.7671 103.401 59.5585C104.16 54.1698 103.98 48.7039 102.887 43.3024C102.861 43.1995 102.758 43.1352 102.655 43.148C102.552 43.1738 102.488 43.2766 102.501 43.3795C104.636 53.8868 103.17 64.8571 98.3597 74.2584C98.3082 74.3484 98.3468 74.4642 98.4497 74.5156C98.4883 74.5285 98.514 74.5285 98.5397 74.5285Z" fill="#333846"/>
<path d="M101.266 41.579C101.292 41.579 101.318 41.579 101.343 41.5661L102.99 40.8974C103.054 40.8717 103.092 40.8073 103.105 40.743C103.118 40.6787 103.092 40.6016 103.028 40.563L101.33 39.2383C101.266 39.1869 101.189 39.1869 101.125 39.2126C101.06 39.2512 101.022 39.3155 101.022 39.3927L101.073 41.3861C101.073 41.4504 101.112 41.5018 101.163 41.5404C101.189 41.5661 101.228 41.579 101.266 41.579ZM102.539 40.6659L101.459 41.1031L101.433 39.7913L102.539 40.6659Z" fill="#333846"/>
<path d="M44.7428 46.389C44.8071 46.389 44.8585 46.3633 44.8971 46.3118C44.9614 46.2218 44.9486 46.1061 44.8585 46.0418L39.2384 41.8748C39.1483 41.8105 39.0326 41.8234 38.9683 41.9134C38.904 42.0035 38.9168 42.1192 39.0069 42.1835L44.627 46.3504C44.6656 46.3761 44.7042 46.389 44.7428 46.389Z" fill="#333846"/>
<path d="M53.231 39.0583C53.2953 39.0583 53.3467 39.0326 53.3853 38.9811C53.4496 38.8911 53.4367 38.7753 53.3467 38.711L38.994 28.088C38.904 28.0237 38.7882 28.0365 38.7239 28.1266C38.6596 28.2166 38.6725 28.3323 38.7625 28.3966L53.1023 39.0197C53.1538 39.0454 53.1924 39.0583 53.231 39.0583Z" fill="#333846"/>
<path d="M43.0837 34.274C43.148 34.274 43.1995 34.2483 43.2381 34.1969C43.3024 34.1068 43.2895 33.9911 43.1995 33.9268L35.6502 28.3323C35.5602 28.268 35.4444 28.2809 35.3801 28.3709C35.3158 28.4609 35.3287 28.5767 35.4187 28.641L42.968 34.2355C43.0066 34.2612 43.0452 34.274 43.0837 34.274Z" fill="#333846"/>
<path d="M87.9038 47.5593C88.0324 47.5593 88.161 47.5336 88.2896 47.4821C88.5597 47.3792 88.7783 47.1735 88.8941 46.9034C89.1384 46.3504 88.8812 45.7073 88.341 45.463C88.2382 45.4244 88.1353 45.463 88.0838 45.5658C88.0452 45.6687 88.0838 45.7716 88.1867 45.8231C88.534 45.9774 88.7011 46.4018 88.5468 46.7619C88.4697 46.942 88.3282 47.0706 88.161 47.1349C87.9938 47.1992 87.8009 47.1992 87.6337 47.122C87.2865 46.9677 87.1193 46.5433 87.2736 46.1832C87.3122 46.0803 87.2736 45.9774 87.1707 45.926C87.0678 45.8874 86.9649 45.926 86.9135 46.0288C86.6691 46.5819 86.9264 47.2249 87.4665 47.4693C87.608 47.5336 87.7623 47.5593 87.9038 47.5593Z" fill="#333846"/>
<path d="M83.9298 9.18261L83.5826 10.533L82.065 10.4816C81.9235 10.7774 81.7692 11.0603 81.5891 11.3304L82.4122 12.6036L81.4348 13.5939L80.1487 12.7836C79.8786 12.9637 79.6086 13.1309 79.3128 13.2724L79.3771 14.7899L78.0395 15.1629L77.3193 13.8254C76.9978 13.8511 76.6763 13.8511 76.3548 13.8254L75.6603 15.1758L74.3099 14.8285L74.3614 13.3109C74.0656 13.1695 73.7826 13.0151 73.5125 12.8351L72.2393 13.6582L71.249 12.6808L72.0593 11.3947C71.8792 11.1246 71.712 10.8545 71.5705 10.5587L70.053 10.623L69.68 9.2855L71.0175 8.56529C70.9918 8.24377 70.9918 7.92225 71.0175 7.60073L69.6671 6.90625L69.9887 5.543L71.5062 5.59444C71.6477 5.29864 71.802 5.0157 71.9821 4.74563L71.159 3.4724L72.1364 2.48212L73.4225 3.29235C73.6926 3.1123 73.9627 2.94511 74.2585 2.80364L74.1942 1.28606L75.5317 0.913099L76.2519 2.25063C76.5734 2.2249 76.8949 2.2249 77.2165 2.25063L77.9367 0.900238L79.287 1.24748L79.2356 2.76506C79.5314 2.90653 79.8143 3.06086 80.0844 3.24091L81.3576 2.41782L82.3479 3.39524L81.5377 4.68132C81.7177 4.9514 81.8849 5.22148 82.0264 5.51728L83.544 5.45297L83.9169 6.7905L82.5794 7.51071C82.6051 7.83223 82.6051 8.15375 82.5794 8.47527L83.9298 9.18261ZM77.6923 4.57844C75.776 4.07686 73.8212 5.22148 73.3196 7.13774C72.818 9.05401 73.9627 11.0089 75.8789 11.5104C77.7952 12.012 79.75 10.8674 80.2516 8.95112C80.7532 7.03486 79.6086 5.06715 77.6923 4.57844Z" fill="white"/>
<path d="M75.043 15.7288C75.1201 15.7288 75.1845 15.6902 75.2102 15.6259L75.8532 14.3912C76.0976 14.4041 76.3548 14.4041 76.5991 14.3912L77.255 15.6259C77.2936 15.703 77.3837 15.7416 77.4737 15.7159L78.8112 15.3429C78.9012 15.3172 78.9527 15.24 78.9527 15.15L78.8884 13.761C79.107 13.6453 79.3256 13.5167 79.5314 13.3881L80.7146 14.1212C80.7918 14.1726 80.8947 14.1597 80.959 14.0954L81.9364 13.1051C82.0007 13.0408 82.0136 12.938 81.9621 12.8608L81.2162 11.6905C81.3448 11.4847 81.4734 11.266 81.5891 11.0474L82.9781 11.0731C83.0681 11.0731 83.1453 11.0217 83.171 10.9317L83.5183 9.58128C83.544 9.49125 83.5054 9.40123 83.4154 9.36264L82.1807 8.7196C82.1936 8.46238 82.1936 8.21803 82.1807 7.97367L83.4154 7.31777C83.4925 7.27919 83.5311 7.18916 83.5054 7.09914L83.1324 5.76161C83.1067 5.67158 83.0296 5.62014 82.9395 5.62014L81.5506 5.68444C81.4348 5.46581 81.3062 5.24718 81.1776 5.0414L81.9107 3.85821C81.9621 3.78104 81.9492 3.67815 81.8849 3.61385L80.8947 2.63643C80.8304 2.57212 80.7275 2.55926 80.6503 2.61071L79.48 3.35663C79.2742 3.22803 79.0556 3.09942 78.8369 2.98367L78.8884 1.5947C78.8884 1.50467 78.8369 1.42751 78.7469 1.40179L77.3965 1.05455C77.3065 1.02882 77.2165 1.06741 77.1779 1.15743L76.5348 2.39207C76.2776 2.37921 76.0333 2.37921 75.7889 2.39207L75.133 1.15743C75.0944 1.08027 75.0044 1.04168 74.9144 1.06741L73.5768 1.44037C73.4868 1.46609 73.4354 1.54326 73.4354 1.63328L73.4997 3.02225C73.281 3.138 73.0624 3.26661 72.8566 3.39522L71.6734 2.66215C71.5963 2.61071 71.4934 2.62357 71.4291 2.68787L70.4517 3.67815C70.3874 3.74246 70.3745 3.84535 70.4259 3.92251L71.1719 5.09285C71.0433 5.29862 70.9147 5.51725 70.7989 5.73589L69.4099 5.68444C69.3199 5.68444 69.2427 5.73589 69.217 5.82591L68.8698 7.1763C68.8441 7.26633 68.8826 7.35635 68.9727 7.39494L70.2073 8.03798C70.1944 8.29519 70.1944 8.53955 70.2073 8.78391L68.9727 9.43981C68.8955 9.47839 68.8569 9.56842 68.8826 9.65844L69.2556 10.996C69.2813 11.086 69.3585 11.1374 69.4485 11.1374L70.8375 11.0731C70.9532 11.2918 71.0818 11.5104 71.2105 11.7162L70.4774 12.8994C70.4259 12.9765 70.4388 13.0794 70.5031 13.1437L71.4934 14.1212C71.5577 14.1855 71.6606 14.1983 71.7377 14.1469L72.9081 13.4009C73.1139 13.5296 73.3325 13.6582 73.5511 13.7739L73.4997 15.1629C73.4997 15.2529 73.5511 15.3301 73.6412 15.3558L74.9915 15.703C75.0173 15.7288 75.0301 15.7288 75.043 15.7288ZM75.7503 13.9925C75.6732 13.9925 75.6089 14.0311 75.5831 14.0954L74.953 15.3043L73.8984 15.0343L73.9498 13.671C73.9498 13.5939 73.9112 13.5167 73.8341 13.491C73.5511 13.3624 73.2682 13.208 73.0238 13.028C72.9595 12.9894 72.8695 12.9765 72.8052 13.028L71.6606 13.761L70.8889 13.0023L71.6091 11.8448C71.6477 11.7805 71.6477 11.6905 71.6091 11.6261C71.4291 11.3689 71.2748 11.0989 71.1333 10.8159C71.0947 10.7516 71.0304 10.7002 70.9532 10.7002L69.59 10.7645L69.3071 9.72274L70.516 9.0797C70.5803 9.04112 70.6189 8.96396 70.6189 8.88679C70.5931 8.57813 70.5931 8.26947 70.6189 7.94795C70.6189 7.87079 70.5803 7.79362 70.516 7.7679L69.3071 7.13772L69.5771 6.08313L70.9404 6.13457C71.0175 6.13457 71.0947 6.09599 71.1204 6.01883C71.249 5.73589 71.4034 5.45295 71.5834 5.20859C71.622 5.14429 71.6349 5.05426 71.5834 4.98996L70.8504 3.84535L71.6091 3.0737L72.7666 3.7939C72.8309 3.83248 72.9209 3.83248 72.9852 3.7939C73.2425 3.61385 73.5125 3.45952 73.7955 3.31805C73.8598 3.27947 73.9112 3.21516 73.9112 3.138L73.8469 1.77475L74.8887 1.49181L75.5317 2.70073C75.5703 2.76504 75.6474 2.80362 75.7246 2.80362C76.0333 2.7779 76.3419 2.7779 76.6634 2.80362C76.7406 2.80362 76.8178 2.76504 76.8435 2.70073L77.4737 1.49181L78.5283 1.76189L78.4768 3.12514C78.4768 3.2023 78.5154 3.27947 78.5926 3.30519C78.8755 3.4338 79.1584 3.58813 79.4028 3.76818C79.4671 3.80676 79.5443 3.81962 79.6214 3.76818L80.7661 3.03511L81.5377 3.7939L80.8175 4.95138C80.7789 5.01568 80.7789 5.10571 80.8175 5.17001C80.9975 5.42723 81.1519 5.69731 81.2933 5.98024C81.3319 6.04455 81.3962 6.09599 81.4734 6.09599L82.8366 6.03169L83.1196 7.07341L81.9107 7.71646C81.8464 7.75504 81.8078 7.8322 81.8078 7.90937C81.8335 8.21803 81.8335 8.52669 81.8078 8.84821C81.8078 8.92537 81.8464 9.00254 81.9107 9.02826L83.1196 9.65844L82.8495 10.713L81.4863 10.6616C81.4091 10.6616 81.3319 10.7002 81.3062 10.7773C81.1776 11.0603 81.0233 11.3432 80.8432 11.5876C80.8046 11.6519 80.7918 11.7419 80.8432 11.8062L81.5763 12.9508L80.8175 13.7225L79.66 13.0023C79.5957 12.9637 79.5057 12.9637 79.4414 13.0023C79.1842 13.1823 78.9141 13.3366 78.6312 13.4781C78.5668 13.5167 78.5154 13.581 78.5154 13.6582L78.5797 15.0214L77.538 15.3043L76.8949 14.0954C76.8564 14.0311 76.7792 13.9925 76.702 13.9925C76.3934 14.0183 76.0847 14.0183 75.7632 13.9925H75.7503ZM76.1876 12.1663C77.8595 12.1663 79.4028 11.0345 79.8401 9.33692C80.3674 7.31777 79.1584 5.26004 77.1393 4.73274C76.1619 4.47553 75.1459 4.617 74.2713 5.13143C73.3968 5.64586 72.7795 6.45609 72.5223 7.43352C72.265 8.41094 72.4065 9.42695 72.9209 10.3015C73.4354 11.176 74.2456 11.7933 75.223 12.0506C75.5574 12.1277 75.8789 12.1663 76.1876 12.1663ZM77.0493 5.10571C78.8626 5.58156 79.943 7.43352 79.48 9.24689C79.0041 11.0603 77.1522 12.1406 75.3388 11.6776C73.5254 11.2017 72.4451 9.34978 72.9081 7.5364C73.1396 6.66187 73.6926 5.9288 74.4771 5.46581C75.2616 5.00282 76.1747 4.87421 77.0493 5.10571Z" fill="#333846"/>
<path d="M106.784 22.5836L106.179 24.8857L103.581 24.7957C103.35 25.3101 103.067 25.786 102.758 26.2361L104.16 28.4224L102.488 30.1201L100.276 28.744C99.8258 29.0655 99.3499 29.3484 98.8484 29.5799L98.9641 32.1778L96.662 32.808L95.4403 30.5187C94.9001 30.5702 94.3342 30.5702 93.7812 30.5316L92.5851 32.8466L90.2831 32.2421L90.3731 29.6442C89.8587 29.4127 89.3828 29.1298 88.9327 28.8211L86.7463 30.2229L85.0487 28.551L86.4248 26.339C86.1033 25.8888 85.8204 25.413 85.5889 24.9114L82.991 25.0272L82.3608 22.7251L84.65 21.5033C84.5986 20.9631 84.5986 20.3973 84.6372 19.8443L82.3222 18.6482L82.9267 16.3461L85.5246 16.4361C85.756 15.9217 86.039 15.4459 86.3476 14.9957L84.9458 12.8094L86.6177 11.1118L88.8298 12.4879C89.2799 12.1663 89.7558 11.8834 90.2573 11.6519L90.1416 9.05402L92.4437 8.42384L93.6526 10.7131C94.1928 10.6616 94.7586 10.6616 95.3116 10.7002L96.5077 8.38525L98.8227 9.00257L98.7326 11.6005C99.2471 11.832 99.7229 12.1149 100.173 12.4236L102.359 11.0217L104.057 12.6936L102.681 14.9057C103.002 15.3558 103.285 15.8317 103.517 16.3332L106.115 16.2046L106.745 18.5067L104.456 19.7285C104.507 20.2687 104.507 20.8345 104.469 21.3876L106.784 22.5836ZM96.0962 14.6871C92.8166 13.8254 89.4728 15.7931 88.6112 19.0726C87.7495 22.3521 89.7172 25.6959 92.9967 26.5576C96.2762 27.4193 99.62 25.4516 100.482 22.1721C101.343 18.8926 99.3757 15.5487 96.0962 14.6871Z" fill="#A3D1FF"/>
<path d="M91.582 33.631C91.6592 33.631 91.7235 33.5925 91.7492 33.5282L92.881 31.329C93.3697 31.3547 93.8455 31.3547 94.3214 31.3161L95.4789 33.5024C95.5175 33.5796 95.6075 33.6182 95.6975 33.5925L97.9996 32.9623C98.0896 32.9366 98.1411 32.8594 98.1411 32.7694L98.0253 30.3001C98.4497 30.0943 98.8741 29.85 99.26 29.5799L101.369 30.8788C101.446 30.9303 101.549 30.9174 101.613 30.8531L103.285 29.1555C103.35 29.0912 103.363 28.9883 103.311 28.9111L101.974 26.8277C102.231 26.429 102.475 26.0174 102.681 25.5802L105.15 25.6573C105.24 25.6573 105.317 25.6059 105.343 25.5159L105.948 23.2138C105.973 23.1237 105.935 23.0337 105.845 22.9951L103.646 21.8634C103.671 21.3747 103.671 20.8988 103.633 20.423L105.819 19.2655C105.896 19.2269 105.935 19.1369 105.909 19.0469L105.279 16.7448C105.253 16.6547 105.176 16.6033 105.086 16.6033L102.617 16.7191C102.411 16.2946 102.167 15.8702 101.896 15.4844L103.208 13.3881C103.26 13.3109 103.247 13.208 103.183 13.1437L101.485 11.4718C101.421 11.4075 101.318 11.3947 101.241 11.4461L99.1571 12.7836C98.7584 12.5264 98.3468 12.2821 97.9096 12.0763L97.9867 9.60701C97.9867 9.51699 97.9353 9.43982 97.8453 9.4141L95.5432 8.80964C95.4532 8.78392 95.3631 8.8225 95.3245 8.91253L94.1928 11.1117C93.7041 11.086 93.2282 11.086 92.7524 11.1246L91.5949 8.93825C91.5563 8.86108 91.4663 8.8225 91.3763 8.84822L89.0742 9.4784C88.9842 9.50413 88.9327 9.58129 88.9327 9.67132L89.0485 12.1406C88.624 12.3464 88.1996 12.5907 87.8138 12.8608L85.7175 11.549C85.6403 11.4976 85.5374 11.5104 85.4731 11.5747L83.8012 13.2724C83.7369 13.3367 83.7241 13.4395 83.7755 13.5167L85.113 15.6002C84.8558 15.9988 84.6115 16.4104 84.4057 16.8477L81.9364 16.7705C81.8464 16.7705 81.7692 16.8219 81.7435 16.912L81.139 19.2141C81.1133 19.3041 81.1519 19.3941 81.2419 19.4327L83.4411 20.5644C83.4154 21.0532 83.4154 21.529 83.454 22.0049L81.2677 23.1623C81.1905 23.2009 81.1519 23.2909 81.1776 23.381L81.8078 25.6831C81.8335 25.7731 81.9107 25.8245 82.0007 25.8245L84.47 25.7088C84.6758 26.1332 84.9201 26.5576 85.1902 26.9434L83.8784 29.0397C83.827 29.1169 83.8398 29.2198 83.9041 29.2841L85.6018 30.956C85.6661 31.0203 85.7689 31.0332 85.8461 30.9817L87.9296 29.6442C88.3282 29.9014 88.7398 30.1458 89.1771 30.3515L89.0999 32.8208C89.0999 32.9108 89.1513 32.988 89.2414 33.0137L91.5435 33.6182C91.5435 33.631 91.5692 33.631 91.582 33.631ZM92.7781 30.9303C92.7009 30.9303 92.6366 30.9689 92.6109 31.0332L91.492 33.2066L89.4857 32.6793L89.5629 30.2358C89.5629 30.1586 89.5243 30.0815 89.4471 30.0557C88.9456 29.8242 88.4697 29.5542 88.0325 29.2584C87.9681 29.2198 87.891 29.2069 87.8138 29.2584L85.7561 30.583L84.2771 29.1298L85.576 27.0463C85.6146 26.982 85.6146 26.892 85.576 26.8277C85.2674 26.3904 84.9844 25.9145 84.7529 25.4258C84.7144 25.3615 84.6501 25.3101 84.5729 25.3101L82.1293 25.4258L81.5763 23.4324L83.7369 22.2878C83.8012 22.2492 83.8398 22.172 83.8398 22.0949C83.7884 21.5676 83.7884 21.0146 83.827 20.4616C83.827 20.3844 83.7884 20.3072 83.7241 20.2815L81.5506 19.1626L82.0779 17.1563L84.5214 17.2335C84.5986 17.2335 84.6758 17.1949 84.7015 17.1177C84.933 16.6162 85.2031 16.1403 85.4989 15.703C85.5374 15.6387 85.5503 15.5487 85.4989 15.4844L84.1742 13.4267L85.6403 11.9605L87.7109 13.2466C87.7752 13.2852 87.8653 13.2852 87.9296 13.2466C88.3668 12.938 88.8427 12.655 89.3314 12.4235C89.3957 12.385 89.4471 12.3206 89.4471 12.2435L89.3314 9.79993L91.3248 9.24691L92.4694 11.4075C92.508 11.4718 92.5852 11.5104 92.6624 11.5104C93.1896 11.459 93.7427 11.459 94.2957 11.4976C94.3728 11.4976 94.45 11.459 94.4757 11.3947L95.5946 9.22119L97.6009 9.74848L97.5237 12.192C97.5237 12.2692 97.5623 12.3464 97.6395 12.3721C98.1411 12.6036 98.6169 12.8737 99.0542 13.1695C99.1185 13.208 99.2085 13.2209 99.2728 13.1695L101.331 11.8448L102.81 13.2981L101.511 15.3815C101.472 15.4458 101.472 15.5359 101.511 15.6002C101.819 16.0374 102.102 16.5133 102.334 17.002C102.372 17.0663 102.437 17.1177 102.514 17.1177L104.957 17.002L105.51 18.9954L103.35 20.14C103.285 20.1786 103.247 20.2558 103.247 20.3329C103.298 20.8602 103.298 21.4133 103.26 21.9663C103.26 22.0434 103.298 22.1206 103.363 22.1463L105.536 23.2781L105.009 25.2844L102.565 25.2072C102.488 25.2072 102.411 25.2458 102.385 25.323C102.154 25.8245 101.884 26.3004 101.588 26.7376C101.549 26.8019 101.536 26.892 101.588 26.9563L102.912 29.014L101.446 30.4801L99.3628 29.1812C99.2985 29.1426 99.2085 29.1426 99.1442 29.1812C98.7069 29.4899 98.2311 29.7728 97.7424 30.0043C97.6781 30.0429 97.6266 30.1072 97.6266 30.1843L97.7424 32.6279L95.749 33.1809L94.6043 31.0203C94.5658 30.956 94.4886 30.9174 94.4114 30.9174C93.8841 30.9689 93.3311 30.9689 92.7781 30.9303C92.7781 30.9303 92.791 30.9303 92.7781 30.9303ZM93.5369 27.535C96.3405 27.535 98.9127 25.6445 99.6586 22.8022C100.533 19.4327 98.514 15.9603 95.1316 15.0857C93.4983 14.6613 91.7878 14.8928 90.3345 15.7545C88.8813 16.6033 87.8395 17.9794 87.4151 19.6127C86.9907 21.2461 87.2222 22.9566 88.0839 24.4098C88.9327 25.8631 90.3088 26.9048 91.9421 27.3292C92.4823 27.4707 93.0096 27.535 93.5369 27.535ZM95.0416 15.4716C98.2054 16.2946 100.122 19.5484 99.2857 22.7251C98.887 24.2555 97.9096 25.5416 96.5463 26.3518C95.1831 27.1492 93.5755 27.3807 92.045 26.9691C90.5146 26.5705 89.2285 25.593 88.4183 24.2298C87.6209 22.8665 87.3894 21.2589 87.801 19.7285C88.1996 18.198 89.1771 16.912 90.5403 16.1017C91.9036 15.2915 93.5112 15.0729 95.0416 15.4716Z" fill="#333846"/>
<path d="M6.18611 106.668H32.5508C34.1327 106.668 35.3159 105.214 34.9944 103.671L30.9946 84.2256C30.6603 82.5794 29.2199 81.4091 27.5479 81.4091H4.9386L6.18611 106.668Z" fill="#A3D1FF"/>
<path d="M6.1861 106.861H32.5508C33.361 106.861 34.1198 106.501 34.6343 105.87C35.1487 105.24 35.3545 104.417 35.1873 103.633L31.1876 84.187C30.8403 82.4765 29.3099 81.229 27.5479 81.229H4.9386C4.88715 81.229 4.8357 81.2547 4.79712 81.2933C4.75854 81.3319 4.74568 81.3833 4.74568 81.4348L5.99319 106.693C5.99319 106.783 6.08321 106.861 6.1861 106.861ZM27.5479 81.602C29.117 81.602 30.4931 82.7209 30.8017 84.2513L34.8015 103.697C34.9429 104.379 34.7757 105.073 34.3256 105.613C33.8883 106.153 33.2324 106.462 32.5379 106.462H6.35329L5.13151 81.5891H27.5479V81.602Z" fill="#333846"/>
<path d="M2.80369 106.668H7.9223C9.50419 106.668 10.6874 105.214 10.3659 103.671L5.95459 82.2579C5.8517 81.7692 5.4273 81.4219 4.92572 81.4219H3.62678C3.08663 81.4219 2.62364 81.8463 2.58506 82.3865L0.784543 104.481C0.681657 105.652 1.62049 106.668 2.80369 106.668Z" fill="#D7EBFF"/>
<path d="M2.80368 106.861H7.9223C8.73253 106.861 9.49131 106.501 10.0057 105.87C10.5202 105.24 10.726 104.417 10.5588 103.633L6.14749 82.2193C6.03175 81.6406 5.51732 81.229 4.93858 81.229H3.62677C2.98373 81.229 2.44358 81.7306 2.39214 82.3736L0.591621 104.469C0.540177 105.086 0.758812 105.703 1.17036 106.166C1.58191 106.591 2.18636 106.861 2.80368 106.861ZM4.93858 81.602C5.33727 81.602 5.69737 81.8849 5.77454 82.2836L10.1858 103.697C10.3273 104.379 10.1601 105.073 9.70995 105.613C9.27268 106.153 8.61678 106.462 7.9223 106.462H2.80368C2.28924 106.462 1.80053 106.256 1.45329 105.87C1.10605 105.485 0.926003 104.996 0.977446 104.469L2.77796 82.3736C2.81655 81.9364 3.18951 81.5891 3.62677 81.5891H4.93858V81.602Z" fill="#333846"/>
<path d="M11.2532 91.8135H29.8114C29.9143 91.8135 30.0043 91.7234 30.0043 91.6206C30.0043 91.5177 29.9143 91.4276 29.8114 91.4276H11.2532C10.7259 91.4276 10.2758 91.0675 10.1601 90.566L8.34669 82.888C8.32097 82.7852 8.21809 82.7209 8.1152 82.7466C8.01232 82.7723 7.94801 82.8752 7.97373 82.9781L9.78711 90.656C9.94144 91.3376 10.5459 91.8135 11.2532 91.8135Z" fill="#333846"/>
<path d="M17.7351 91.6206L18.3138 93.9484C18.4039 94.3471 18.764 94.6171 19.1627 94.6171H23.2524C23.7025 94.6171 24.024 94.1927 23.8954 93.7683L23.291 91.6206H17.7351Z" fill="white"/>
<path d="M19.1755 94.81H23.2653C23.5353 94.81 23.7925 94.6814 23.9597 94.4628C24.1269 94.2442 24.1784 93.9741 24.1012 93.704L23.4968 91.5563C23.471 91.4791 23.3939 91.4148 23.3167 91.4148H17.748C17.6837 91.4148 17.6322 91.4405 17.5936 91.4919C17.555 91.5434 17.5422 91.5948 17.555 91.6591L18.1338 93.9869C18.2495 94.4757 18.6739 94.81 19.1755 94.81ZM23.1624 91.8135L23.7282 93.8198C23.7668 93.9612 23.7411 94.1156 23.6511 94.2442C23.5611 94.3599 23.4196 94.4371 23.2653 94.4371H19.1755C18.854 94.4371 18.5839 94.2184 18.5068 93.9098L17.9923 91.8135H23.1624Z" fill="#333846"/>
<path d="M9.06692 81.2805L8.59107 78.8498C8.37244 77.3193 9.18267 76.4705 10.3401 76.4705H21.0018C22.1593 76.4705 23.2653 77.6923 23.4582 78.8498L23.9341 81.2805H22.2236L21.812 79.2099C21.6577 78.3096 21.1047 77.8466 20.2044 77.8466H11.2275C10.3273 77.8466 10.2115 78.3096 10.3659 79.2099L10.7774 81.2805H9.06692Z" fill="white"/>
<path d="M9.06691 81.4734H10.7774C10.8288 81.4734 10.8932 81.4476 10.9317 81.4091C10.9703 81.3705 10.9832 81.3062 10.9703 81.2547L10.5588 79.1841C10.4687 78.6697 10.4945 78.3739 10.6102 78.2324C10.7131 78.1167 10.906 78.0524 11.2275 78.0524H20.2044C21.0275 78.0524 21.4905 78.4511 21.6191 79.2484L22.0306 81.3319C22.0435 81.4219 22.1335 81.4862 22.2235 81.4862H23.934C23.9855 81.4862 24.0498 81.4605 24.0884 81.4219C24.1269 81.3833 24.1398 81.319 24.127 81.2676L23.6511 78.8369C23.4453 77.6408 22.3136 76.3033 21.0018 76.3033H10.3401C9.72282 76.3033 9.19552 76.522 8.84828 76.9335C8.43673 77.4093 8.2824 78.091 8.39815 78.9012L8.874 81.3448C8.89972 81.4091 8.97689 81.4734 9.06691 81.4734ZM10.5459 81.0875H9.2341L8.78397 78.8112C8.68109 78.1167 8.8097 77.538 9.14408 77.1521C9.42702 76.8306 9.83856 76.6506 10.353 76.6506H21.0146C22.0949 76.6506 23.1109 77.8209 23.2781 78.8626L23.7154 81.0747H22.3907L22.0049 79.1584C21.8377 78.1681 21.2204 77.6408 20.2044 77.6408H11.2275C10.7903 77.6408 10.4945 77.7437 10.3144 77.9495C10.0572 78.2582 10.0958 78.7469 10.1729 79.2227L10.5459 81.0875Z" fill="#333846"/>
<path d="M11.0475 76.0589H20.0629C20.423 76.0589 20.7702 76.3547 20.8345 76.7148L20.9632 77.4994C21.0275 77.8595 20.7831 78.1553 20.4101 78.1553H11.3947C11.0346 78.1553 10.6874 77.8595 10.6231 77.4994L10.4944 76.7148C10.443 76.3547 10.6874 76.0589 11.0475 76.0589Z" fill="#A3D1FF"/>
<path d="M11.4076 78.361H20.423C20.6545 78.361 20.8603 78.271 21.0017 78.1038C21.1432 77.9366 21.2075 77.718 21.1561 77.4736L21.0275 76.6891C20.9503 76.2261 20.5259 75.866 20.0629 75.866H11.0475C10.816 75.866 10.6102 75.9561 10.4687 76.1232C10.3273 76.2904 10.263 76.5091 10.3144 76.7534L10.443 77.5379C10.5202 78.0009 10.9446 78.361 11.4076 78.361ZM20.0629 76.2519C20.333 76.2519 20.5902 76.4833 20.6416 76.7534L20.7703 77.5379C20.796 77.6537 20.7703 77.7694 20.6931 77.8466C20.6288 77.9238 20.5259 77.9623 20.4102 77.9623H11.3947C11.1246 77.9623 10.8674 77.7308 10.816 77.4608L10.6874 76.6763C10.6616 76.5605 10.6874 76.4448 10.7645 76.3676C10.8288 76.2904 10.9317 76.2519 11.0475 76.2519H20.0629Z" fill="#333846"/>
</g>
<defs>
<clipPath id="clip0_303_707">
<rect width="107.156" height="106.861" fill="white" transform="matrix(-1 0 0 1 107.156 0)"/>
</clipPath>
</defs>
</svg>
