<svg width="32" height="32" viewBox="0 0 32 32" fill="none" xmlns="http://www.w3.org/2000/svg">
<path d="M9 2C8.0375 2 7.25 2.7875 7.25 3.75V28.25C7.25 29.2125 8.0375 30 9 30H26.5C27.4625 30 28.25 29.2125 28.25 28.25V9L21.25 2H9Z" fill="#E0E1E3"/>
<path d="M23 9H28.25L21.25 2V7.25C21.25 8.2125 22.0375 9 23 9Z" fill="#CCCDD1"/>
<path d="M24.75 24.75C24.75 25.2313 24.3563 25.625 23.875 25.625H4.625C4.14375 25.625 3.75 25.2313 3.75 24.75V16C3.75 15.5187 4.14375 15.125 4.625 15.125H23.875C24.3563 15.125 24.75 15.5187 24.75 16V24.75Z" fill="#333846"/>
<path d="M7.56396 18.5787C7.56396 18.3477 7.74596 18.0957 8.03909 18.0957H9.65521C10.5652 18.0957 11.3842 18.7047 11.3842 19.872C11.3842 20.978 10.5652 21.594 9.65521 21.594H8.48709V22.518C8.48709 22.826 8.29109 23.0001 8.03909 23.0001C7.80809 23.0001 7.56396 22.826 7.56396 22.518V18.5787V18.5787ZM8.48709 18.9768V20.7198H9.65521C10.1242 20.7198 10.4952 20.306 10.4952 19.872C10.4952 19.3828 10.1242 18.9768 9.65521 18.9768H8.48709Z" fill="white"/>
<path d="M12.7545 22.9999C12.5235 22.9999 12.2715 22.8739 12.2715 22.5668V18.5926C12.2715 18.3414 12.5235 18.1586 12.7545 18.1586H14.3566C17.5539 18.1586 17.4839 22.9999 14.4196 22.9999H12.7545V22.9999ZM13.1955 19.0126V22.1468H14.3566C16.2457 22.1468 16.3297 19.0126 14.3566 19.0126H13.1955V19.0126Z" fill="white"/>
<path d="M18.6179 19.0686V20.1807H20.402C20.654 20.1807 20.906 20.4327 20.906 20.6768C20.906 20.9078 20.654 21.0968 20.402 21.0968H18.6179V22.566C18.6179 22.811 18.4438 22.9991 18.1988 22.9991C17.8908 22.9991 17.7026 22.811 17.7026 22.566V18.5917C17.7026 18.3406 17.8916 18.1577 18.1988 18.1577H20.6549C20.9629 18.1577 21.1449 18.3406 21.1449 18.5917C21.1449 18.8157 20.9629 19.0677 20.6549 19.0677H18.6179V19.0686Z" fill="white"/>
</svg>
