<?xml version="1.0" encoding="utf-8"?>
<!-- Generator: Adobe Illustrator 26.1.0, SVG Export Plug-In . SVG Version: 6.00 Build 0)  -->
<svg version="1.1" id="Layer_1" xmlns="http://www.w3.org/2000/svg" xmlns:xlink="http://www.w3.org/1999/xlink" x="0px" y="0px"
	 viewBox="0 0 295.81 63.17" style="enable-background:new 0 0 295.81 63.17;" xml:space="preserve">
<style type="text/css">
	.st0{fill:#EF3943;}
	.st1{fill:#14132C;}
</style>
<g>
	<g>
		<rect class="st0" width="9.02" height="9.02"/>
	</g>
	<g>
		<path class="st0" d="M54.14,0L54.14,0h-9.02H18.04v9.02h27.08v7.02l-11.27,6.51c-6.98,4.03-11.28,11.48-11.28,19.54v7.97
			l-6.04-3.49c-4.65-2.69-7.52-7.65-7.52-13.03V18.05H0v16.36c0,8.06,4.3,15.51,11.28,19.54l11.29,6.52l4.69,2.71l4.32-2.5
			l11.27-6.51c6.98-4.03,11.28-11.48,11.28-19.54v-7.97V16.25V9.02h0V0z M45.12,33.77c0,5.37-2.87,10.34-7.52,13.03l-6.02,3.47
			v-7.32c0-5.37,2.87-10.34,7.52-13.03l6.02-3.47V33.77z"/>
	</g>
</g>
<g>
	<g>
		<path class="st1" d="M148.83,6.24v17.19h-4.88v-2.01c-1.07,1.23-2.67,1.98-4.84,1.98c-4.26,0-7.77-3.74-7.77-8.58
			c0-4.84,3.51-8.58,7.77-8.58c2.18,0,3.77,0.75,4.84,1.98V6.24H148.83z M143.95,14.82c0-2.44-1.63-3.97-3.87-3.97
			c-2.24,0-3.87,1.53-3.87,3.97c0,2.44,1.63,3.97,3.87,3.97C142.33,18.78,143.95,17.26,143.95,14.82z"/>
		<path class="st1" d="M129.9,6.24v5.58c-2.03-0.33-4.92,0.49-4.92,3.74v7.88h-4.92V6.24h4.92v3.25
			C125.64,7.29,127.84,6.24,129.9,6.24z"/>
		<g>
			<path class="st1" d="M254.32,23.43l-5.03-6.95v6.95h-4.72V0.51h4.72v12.62L254,6.24h5.5l-5.72,8.33l5.88,8.86H254.32z"/>
			<path class="st1" d="M276.67,12.75v10.69h-4.72v-9.99c0-1.95-1.23-2.86-2.73-2.86c-1.73,0-2.92,1.01-2.92,3.24v9.62h-4.72V0.51
				h4.72v7.65c0.85-1.16,2.42-1.92,4.5-1.92C273.96,6.24,276.67,8.5,276.67,12.75z"/>
			<path class="st1" d="M278.58,14.82c0-4.84,3.84-8.58,8.62-8.58c4.78,0,8.62,3.74,8.62,8.58c0,4.84-3.84,8.58-8.62,8.58
				C282.42,23.4,278.58,19.66,278.58,14.82z M290.93,14.82c0-2.31-1.63-3.84-3.74-3.84c-2.11,0-3.74,1.53-3.74,3.84
				s1.63,3.84,3.74,3.84C289.31,18.65,290.93,17.13,290.93,14.82z"/>
			<path id="Shape_00000182518014092533679530000006516349218152524937_" class="st1" d="M224.29,11.93
				c0,6.49-4.82,11.46-11.14,11.46h-8.65V0.47h8.65C219.48,0.47,224.29,5.44,224.29,11.93z M219.41,11.93c0-3.93-2.49-6.52-6.1-6.52
				h-3.93v13.04h3.93C216.91,18.45,219.41,15.86,219.41,11.93z"/>
			<path id="Shape_00000078025199974164895750000002287555373280198041_" class="st1" d="M234.8,19.05c0.96,0,1.82-0.27,2.47-0.69
				c0,0,1.52,0.57,4.57,1.7c-1.59,2.22-4,3.36-7.1,3.36c-5.56,0-9.02-3.74-9.02-8.6s3.52-8.6,8.66-8.6c4.76,0,8.28,3.68,8.28,8.6
				c0,0.69-0.06,1.33-0.19,1.96h-11.55C231.5,18.47,233,19.05,234.8,19.05z M237.79,13.12c-0.51-1.88-1.99-2.57-3.45-2.57
				c-1.85,0-3.1,0.92-3.55,2.57H237.79z"/>
		</g>
		<path id="Shape_00000063624441387300409400000002261968420475302040_" class="st1" d="M194.73,19.06c0.96,0,1.82-0.27,2.47-0.69
			c0,0,1.52,0.57,4.57,1.7c-1.59,2.22-4,3.36-7.1,3.36c-5.56,0-9.02-3.74-9.02-8.6s3.52-8.6,8.66-8.6c4.76,0,8.28,3.68,8.28,8.6
			c0,0.69-0.06,1.33-0.19,1.96h-11.55C191.44,18.48,192.93,19.06,194.73,19.06z M197.72,13.13c-0.51-1.88-1.99-2.57-3.45-2.57
			c-1.85,0-3.1,0.92-3.55,2.57H197.72z"/>
		<path class="st1" d="M67.46,0.51v22.93h-5.24V0.51H67.46z"/>
		<path class="st1" d="M85.46,13.16v10.27h-5.02V13.9c0-2.07-1.3-3.04-2.91-3.04c-1.84,0-3.11,1.07-3.11,3.45v9.13H69.4l0-17.19
			h5.02l0,2.04c0.9-1.24,2.58-2.04,4.78-2.04C82.58,6.24,85.46,8.65,85.46,13.16z"/>
		<path class="st1" d="M166.79,13.16v10.27h-5.02V13.9c0-2.07-1.3-3.04-2.91-3.04c-1.84,0-3.11,1.07-3.11,3.45v9.13h-5.02l0-17.19
			h5.02l0,2.04c0.9-1.24,2.58-2.04,4.78-2.04C163.92,6.24,166.79,8.65,166.79,13.16z"/>
		<path class="st1" d="M100.67,18.09c0,3.75-3.26,5.34-6.77,5.34c-3.26,0-5.73-1.24-7-3.88l4.23-2.41c0.42,1.24,1.34,1.92,2.77,1.92
			c1.17,0,1.76-0.36,1.76-1.01c0-1.79-8.01-0.85-8.01-6.48c0-3.55,3-5.34,6.38-5.34c2.64,0,4.98,1.17,6.35,3.48l-4.17,2.25
			c-0.46-0.85-1.11-1.43-2.18-1.43c-0.85,0-1.37,0.33-1.37,0.91C92.66,13.3,100.67,12.07,100.67,18.09z"/>
		<path class="st1" d="M118.16,6.24l0,17.19h-5.02l0-2.04c-0.9,1.24-2.58,2.04-4.78,2.04c-3.38,0-6.26-2.41-6.26-6.92V6.24h5.02
			v9.53c0,2.07,1.3,3.04,2.91,3.04c1.84,0,3.11-1.07,3.11-3.45V6.24H118.16z"/>
		<path class="st1" d="M168.23,14.83c0-4.85,3.68-8.6,8.63-8.6c3.16,0,5.96,1.66,7.36,4.17l-4.27,2.47
			c-0.55-1.14-1.73-1.82-3.16-1.82c-2.12,0-3.68,1.53-3.68,3.78s1.56,3.78,3.68,3.78c1.43,0,2.64-0.68,3.16-1.82l4.27,2.44
			c-1.4,2.54-4.17,4.2-7.36,4.2C171.91,23.43,168.23,19.69,168.23,14.83z"/>
	</g>
</g>
<g>
	<path d="M68.6,35.42c0.51,0.24,0.91,0.59,1.21,1.05s0.45,0.98,0.45,1.57c0,0.89-0.31,1.64-0.94,2.24c-0.62,0.6-1.39,0.91-2.29,0.91
		h-4.8V30.07h4.45c0.87,0,1.6,0.29,2.21,0.87s0.91,1.3,0.91,2.16C69.8,34.08,69.4,34.86,68.6,35.42z M66.69,31.45h-2.97v3.4h2.97
		c0.47,0,0.86-0.16,1.17-0.49c0.32-0.33,0.48-0.73,0.48-1.21c0-0.47-0.16-0.87-0.48-1.2C67.54,31.61,67.15,31.45,66.69,31.45z
		 M67.04,39.8c0.5,0,0.92-0.17,1.25-0.52c0.34-0.35,0.51-0.78,0.51-1.29c0-0.5-0.17-0.92-0.52-1.27c-0.34-0.35-0.76-0.52-1.25-0.52
		h-3.32v3.6H67.04z"/>
	<path d="M75.82,33.04c0.93,0,1.68,0.29,2.24,0.88c0.56,0.59,0.84,1.38,0.84,2.39v4.87h-1.38v-4.8c0-0.65-0.17-1.15-0.52-1.5
		c-0.35-0.35-0.83-0.53-1.45-0.53c-0.69,0-1.24,0.21-1.67,0.64c-0.42,0.43-0.63,1.09-0.63,1.98v4.21h-1.38V30.07h1.38v4.32
		C73.81,33.49,74.67,33.04,75.82,33.04z"/>
	<path d="M87.4,33.24h1.38v7.94H87.4v-1.37c-0.69,1.05-1.69,1.57-3,1.57c-1.11,0-2.06-0.4-2.84-1.21c-0.78-0.81-1.17-1.8-1.17-2.96
		c0-1.16,0.39-2.15,1.17-2.96c0.78-0.81,1.73-1.21,2.84-1.21c1.31,0,2.31,0.52,3,1.57V33.24z M84.57,40.05
		c0.8,0,1.48-0.27,2.02-0.82c0.54-0.54,0.81-1.22,0.81-2.02c0-0.8-0.27-1.48-0.81-2.02c-0.54-0.54-1.21-0.82-2.02-0.82
		c-0.79,0-1.46,0.27-2,0.82c-0.54,0.55-0.81,1.22-0.81,2.02c0,0.8,0.27,1.48,0.81,2.02C83.11,39.78,83.78,40.05,84.57,40.05z"/>
	<path d="M92.26,34.58c0.46-0.98,1.28-1.48,2.48-1.48v1.44c-0.68-0.03-1.26,0.15-1.75,0.54c-0.49,0.39-0.73,1.02-0.73,1.89v4.21
		h-1.38v-7.94h1.38V34.58z"/>
	<path d="M102.36,40.18c-0.82,0.8-1.81,1.21-2.97,1.21s-2.15-0.4-2.96-1.21c-0.81-0.8-1.21-1.79-1.21-2.97
		c0-1.17,0.4-2.16,1.21-2.97c0.81-0.8,1.8-1.21,2.96-1.21s2.15,0.4,2.97,1.21c0.81,0.8,1.22,1.79,1.22,2.97
		C103.58,38.39,103.17,39.38,102.36,40.18z M99.39,40.04c0.79,0,1.46-0.27,2-0.81c0.54-0.54,0.81-1.21,0.81-2.02
		c0-0.8-0.27-1.48-0.81-2.02c-0.54-0.54-1.21-0.81-2-0.81c-0.78,0-1.45,0.27-1.98,0.81c-0.54,0.54-0.81,1.21-0.81,2.02
		c0,0.8,0.27,1.48,0.81,2.02C97.94,39.77,98.6,40.04,99.39,40.04z"/>
	<path d="M106.23,35.36c0,0.3,0.16,0.54,0.47,0.72c0.31,0.18,0.68,0.34,1.12,0.46c0.43,0.13,0.87,0.25,1.3,0.38
		c0.44,0.13,0.81,0.37,1.11,0.72c0.3,0.35,0.45,0.8,0.45,1.36c0,0.72-0.28,1.3-0.83,1.73c-0.56,0.43-1.27,0.65-2.14,0.65
		c-0.77,0-1.43-0.17-1.99-0.51c-0.55-0.34-0.94-0.79-1.17-1.35l1.19-0.68c0.13,0.38,0.36,0.68,0.71,0.9
		c0.35,0.22,0.77,0.33,1.25,0.33c0.46,0,0.83-0.09,1.13-0.26c0.3-0.17,0.44-0.45,0.44-0.82c0-0.31-0.15-0.55-0.46-0.74
		c-0.31-0.19-0.68-0.34-1.11-0.47c-0.43-0.13-0.87-0.26-1.3-0.39s-0.81-0.37-1.12-0.7c-0.31-0.34-0.46-0.77-0.46-1.3
		c0-0.69,0.27-1.25,0.8-1.7c0.53-0.44,1.2-0.67,2.01-0.67c0.65,0,1.22,0.15,1.72,0.44c0.5,0.29,0.88,0.7,1.13,1.21l-1.16,0.65
		c-0.29-0.68-0.85-1.02-1.7-1.02c-0.39,0-0.73,0.09-1,0.27S106.23,35.03,106.23,35.36z"/>
	<path d="M118.66,33.24h1.38v7.94h-1.38v-1.37c-0.69,1.05-1.69,1.57-3,1.57c-1.11,0-2.06-0.4-2.84-1.21
		c-0.78-0.81-1.17-1.8-1.17-2.96c0-1.16,0.39-2.15,1.17-2.96c0.78-0.81,1.73-1.21,2.84-1.21c1.31,0,2.31,0.52,3,1.57V33.24z
		 M115.84,40.05c0.8,0,1.48-0.27,2.02-0.82c0.54-0.54,0.81-1.22,0.81-2.02c0-0.8-0.27-1.48-0.81-2.02
		c-0.54-0.54-1.21-0.82-2.02-0.82c-0.79,0-1.46,0.27-2,0.82c-0.54,0.55-0.81,1.22-0.81,2.02c0,0.8,0.27,1.48,0.81,2.02
		C114.37,39.78,115.04,40.05,115.84,40.05z"/>
	<path d="M134.33,41.18h-1.81l-4.79-5.34v5.34h-1.48V30.07h1.48v5.03l4.64-5.03h1.81l-4.91,5.4L134.33,41.18z"/>
	<path d="M141.37,33.24h1.38v7.94h-1.38v-1.37c-0.69,1.05-1.69,1.57-3,1.57c-1.11,0-2.06-0.4-2.84-1.21
		c-0.78-0.81-1.17-1.8-1.17-2.96c0-1.16,0.39-2.15,1.17-2.96c0.78-0.81,1.73-1.21,2.84-1.21c1.31,0,2.31,0.52,3,1.57V33.24z
		 M138.54,40.05c0.8,0,1.48-0.27,2.02-0.82c0.54-0.54,0.81-1.22,0.81-2.02c0-0.8-0.27-1.48-0.81-2.02
		c-0.54-0.54-1.21-0.82-2.02-0.82c-0.79,0-1.46,0.27-2,0.82c-0.54,0.55-0.81,1.22-0.81,2.02c0,0.8,0.27,1.48,0.81,2.02
		C137.08,39.78,137.75,40.05,138.54,40.05z"/>
	<path d="M146.23,34.58c0.46-0.98,1.28-1.48,2.48-1.48v1.44c-0.68-0.03-1.26,0.15-1.75,0.54c-0.49,0.39-0.73,1.02-0.73,1.89v4.21
		h-1.38v-7.94h1.38V34.58z"/>
	<path d="M162.25,41.18h-1.81l-4.79-5.34v5.34h-1.48V30.07h1.48v5.03l4.64-5.03h1.81l-4.91,5.4L162.25,41.18z"/>
	<path d="M163.68,37.85c0.14,0.71,0.46,1.26,0.98,1.65c0.51,0.39,1.15,0.59,1.9,0.59c1.05,0,1.81-0.39,2.29-1.16l1.17,0.67
		c-0.77,1.2-1.94,1.79-3.49,1.79c-1.26,0-2.28-0.39-3.07-1.18c-0.79-0.79-1.18-1.79-1.18-2.99c0-1.2,0.39-2.19,1.16-2.98
		c0.77-0.79,1.77-1.19,3-1.19c1.16,0,2.11,0.41,2.85,1.23c0.74,0.82,1.1,1.81,1.1,2.96c0,0.2-0.02,0.41-0.05,0.62H163.68z
		 M166.42,34.34c-0.74,0-1.36,0.21-1.84,0.63c-0.49,0.42-0.79,0.98-0.91,1.68h5.3c-0.12-0.75-0.41-1.32-0.89-1.71
		S167.06,34.34,166.42,34.34z"/>
	<path d="M180.41,30.07c1.51,0,2.77,0.54,3.77,1.61c1,1.07,1.5,2.39,1.5,3.95c0,1.56-0.5,2.87-1.5,3.95c-1,1.07-2.26,1.61-3.77,1.61
		h-4.33V30.07H180.41z M180.41,39.78c1.13,0,2.06-0.4,2.78-1.19c0.72-0.79,1.08-1.78,1.08-2.97s-0.36-2.18-1.08-2.97
		c-0.72-0.79-1.65-1.19-2.78-1.19h-2.86v8.32H180.41z"/>
	<path d="M188.3,37.85c0.14,0.71,0.46,1.26,0.98,1.65c0.51,0.39,1.15,0.59,1.9,0.59c1.05,0,1.81-0.39,2.29-1.16l1.17,0.67
		c-0.77,1.2-1.94,1.79-3.49,1.79c-1.26,0-2.28-0.39-3.07-1.18c-0.79-0.79-1.18-1.79-1.18-2.99c0-1.2,0.39-2.19,1.16-2.98
		c0.77-0.79,1.77-1.19,3-1.19c1.16,0,2.11,0.41,2.85,1.23c0.74,0.82,1.1,1.81,1.1,2.96c0,0.2-0.02,0.41-0.05,0.62H188.3z
		 M191.05,34.34c-0.74,0-1.36,0.21-1.84,0.63c-0.49,0.42-0.79,0.98-0.91,1.68h5.3c-0.12-0.75-0.41-1.32-0.89-1.71
		S191.69,34.34,191.05,34.34z"/>
	<path d="M203.31,41.18h-1.71l-3.62-3.76v3.76h-1.38V30.07h1.38v6.67l3.43-3.5h1.78l-3.79,3.84L203.31,41.18z"/>
	<path d="M208.55,33.04c0.93,0,1.68,0.29,2.24,0.88c0.56,0.59,0.84,1.38,0.84,2.39v4.87h-1.38v-4.8c0-0.65-0.17-1.15-0.52-1.5
		c-0.35-0.35-0.83-0.53-1.45-0.53c-0.69,0-1.24,0.21-1.67,0.64c-0.42,0.43-0.63,1.09-0.63,1.98v4.21h-1.38V30.07h1.38v4.32
		C206.54,33.49,207.39,33.04,208.55,33.04z"/>
	<path d="M220.25,40.18c-0.82,0.8-1.81,1.21-2.97,1.21c-1.16,0-2.15-0.4-2.96-1.21c-0.81-0.8-1.21-1.79-1.21-2.97
		c0-1.17,0.4-2.16,1.21-2.97c0.81-0.8,1.8-1.21,2.96-1.21c1.16,0,2.15,0.4,2.97,1.21c0.81,0.8,1.22,1.79,1.22,2.97
		C221.47,38.39,221.07,39.38,220.25,40.18z M217.28,40.04c0.79,0,1.46-0.27,2-0.81c0.54-0.54,0.81-1.21,0.81-2.02
		c0-0.8-0.27-1.48-0.81-2.02c-0.54-0.54-1.21-0.81-2-0.81c-0.78,0-1.45,0.27-1.98,0.81c-0.54,0.54-0.81,1.21-0.81,2.02
		c0,0.8,0.27,1.48,0.81,2.02C215.84,39.77,216.5,40.04,217.28,40.04z"/>
</g>
</svg>
