<svg width="17" height="16" viewBox="0 0 17 16" fill="none" xmlns="http://www.w3.org/2000/svg">
<path fill-rule="evenodd" clip-rule="evenodd" d="M11.9306 2.40458C11.0576 1.55727 9.50356 2.12367 9.50356 3.40525V4.00717C6.99577 4.46891 5.13723 5.58913 3.80136 7.07097C2.37463 8.65358 1.57603 10.6121 1.1804 12.5321C1.11718 12.8389 1.27606 13.1483 1.56222 13.2757C1.84838 13.4031 2.18463 13.3141 2.37028 13.0618C4.00412 10.8417 6.24268 9.72574 9.50356 9.59479V10.1582C9.50356 11.4534 11.0675 11.9892 11.9306 11.1515L15.4093 7.77506C15.9747 7.2263 15.9747 6.32982 15.4093 5.78107L11.9306 2.40458ZM10.953 3.33464C10.9669 3.33694 10.9826 3.34263 11.0019 3.36135L14.4807 6.73783C14.4965 6.75322 14.5 6.7671 14.5 6.77806C14.5 6.78903 14.4965 6.80291 14.4807 6.81829L11.0019 10.1948C10.9818 10.2143 10.9649 10.2206 10.95 10.2231C10.9316 10.2263 10.9082 10.2245 10.885 10.2153C10.8617 10.206 10.8489 10.1936 10.8438 10.1866L10.8437 10.1865C10.8412 10.183 10.8369 10.1772 10.8369 10.1582V8.91503C10.8369 8.54684 10.5384 8.24836 10.1702 8.24836C7.382 8.24836 5.13043 8.86637 3.32744 10.2065C3.70348 9.39684 4.18536 8.63631 4.79167 7.96375C6.00828 6.61422 7.75776 5.58244 10.2618 5.23523C10.5914 5.18953 10.8369 4.9077 10.8369 4.57489V3.40525C10.8369 3.386 10.8413 3.3791 10.8449 3.37419C10.8509 3.36588 10.8648 3.35266 10.8887 3.34303C10.9124 3.33343 10.9356 3.33175 10.953 3.33464Z" fill="#333846"/>
</svg>
