<svg width="36" height="36" viewBox="0 0 36 36" fill="none" xmlns="http://www.w3.org/2000/svg">
<circle cx="18" cy="18" r="16" fill="#F5F5F6"/>
<path d="M22.2 13.8066C21.94 13.5466 21.52 13.5466 21.26 13.8066L18 17.06L14.74 13.8C14.48 13.54 14.06 13.54 13.8 13.8C13.54 14.06 13.54 14.48 13.8 14.74L17.06 18L13.8 21.26C13.54 21.52 13.54 21.94 13.8 22.2C14.06 22.46 14.48 22.46 14.74 22.2L18 18.94L21.26 22.2C21.52 22.46 21.94 22.46 22.2 22.2C22.46 21.94 22.46 21.52 22.2 21.26L18.94 18L22.2 14.74C22.4533 14.4866 22.4533 14.06 22.2 13.8066V13.8066Z" fill="#333846"/>
</svg>
