<svg width="73" height="67" viewBox="0 0 73 67" fill="none" xmlns="http://www.w3.org/2000/svg">
<circle cx="33" cy="33" r="33" fill="#F2F9FF"/>
<circle cx="32.7305" cy="33.0567" r="19.7335" fill="#B2D9FF"/>
<circle cx="32.7306" cy="33.0566" r="14.0953" fill="white"/>
<path d="M32.7306 22.694C32.7306 22.487 32.5626 22.3185 32.3558 22.3258C29.766 22.4161 27.2913 23.4407 25.3932 25.2173C23.4951 26.9938 22.3092 29.3954 22.0478 31.9735C22.0269 32.1794 22.184 32.3581 22.3905 32.3718C22.597 32.3855 22.7748 32.229 22.7962 32.0231C23.0447 29.6348 24.1462 27.411 25.9054 25.7645C27.6646 24.118 29.9563 23.1658 32.3558 23.0758C32.5626 23.068 32.7306 22.901 32.7306 22.694Z" fill="#CCE5FF"/>
<rect x="48.4047" y="53.9827" width="5.51734" height="18.3911" rx="2.75867" transform="rotate(-45 48.4047 53.9827)" fill="#CCE5FF"/>
<rect x="54.5483" y="55.5323" width="0.895813" height="7.51114" rx="0.447906" transform="rotate(-45 54.5483 55.5323)" fill="#CCE5FF"/>
<rect x="47.1006" y="49.4277" width="0.919557" height="3.67823" rx="0.459778" transform="rotate(-45 47.1006 49.4277)" fill="#66B2FF"/>
<rect x="56.8575" y="30.7413" width="9.19557" height="0.919557" rx="0.459778" fill="#66B2FF"/>
<rect y="38.3482" width="9.19557" height="0.919557" rx="0.459778" fill="#66B2FF"/>
<rect x="67.8922" y="30.7413" width="4.59778" height="0.919557" rx="0.459778" fill="#66B2FF"/>
<rect x="59.1564" y="34.1149" width="4.59778" height="0.919557" rx="0.459778" fill="#66B2FF"/>
<rect x="2.29883" y="41.7219" width="4.59778" height="0.919557" rx="0.459778" fill="#66B2FF"/>
<rect x="38" y="2" width="27" height="27" rx="10" fill="#007FFF"/>
<path d="M56.0171 9.9909C55.7065 9.68032 55.2048 9.68032 54.8942 9.9909L51 13.8771L47.1058 9.98294C46.7952 9.67235 46.2935 9.67235 45.9829 9.98294C45.6724 10.2935 45.6724 10.7952 45.9829 11.1058L49.8771 15L45.9829 18.8942C45.6724 19.2048 45.6724 19.7065 45.9829 20.0171C46.2935 20.3276 46.7952 20.3276 47.1058 20.0171L51 16.1229L54.8942 20.0171C55.2048 20.3276 55.7065 20.3276 56.0171 20.0171C56.3276 19.7065 56.3276 19.2048 56.0171 18.8942L52.1229 15L56.0171 11.1058C56.3197 10.8032 56.3197 10.2935 56.0171 9.9909Z" fill="white"/>
</svg>
