<svg width="24" height="24" viewBox="0 0 24 24" fill="none" xmlns="http://www.w3.org/2000/svg">
<path fill-rule="evenodd" clip-rule="evenodd" d="M6 10.5467C6 7.48333 8.48333 5 11.5467 5C14.61 5 17.0933 7.48333 17.0933 10.5467C17.0933 13.61 14.61 16.0933 11.5467 16.0933C8.48333 16.0933 6 13.61 6 10.5467ZM11.5467 3C7.37876 3 4 6.37876 4 10.5467C4 14.7146 7.37876 18.0933 11.5467 18.0933C13.1832 18.0933 14.6981 17.5724 15.9345 16.6873L17.9605 18.708C18.3515 19.098 18.9847 19.0972 19.3747 18.7061C19.7647 18.3151 19.7639 17.6819 19.3728 17.2919L17.3938 15.3181C18.4561 14.0178 19.0933 12.3566 19.0933 10.5467C19.0933 6.37876 15.7146 3 11.5467 3Z" fill="#333846"/>
</svg>
