<svg width="28" height="28" viewBox="0 0 28 28" fill="none" xmlns="http://www.w3.org/2000/svg">
<path d="M14.005 7.64868C13.6146 7.64868 13.2992 7.96402 13.2992 8.35445L13.2942 13.2448H8.39892C8.0085 13.2448 7.69315 13.5601 7.69315 13.9505C7.69315 14.3409 8.0085 14.6563 8.39892 14.6563H13.2942L13.2942 19.5516C13.2942 19.942 13.6096 20.2574 14 20.2574C14.3904 20.2574 14.7058 19.942 14.7058 19.5516L14.7058 14.6563H19.6011C19.9915 14.6563 20.3068 14.3409 20.3068 13.9505C20.3068 13.5601 19.9915 13.2448 19.6011 13.2448H14.7058L14.7058 8.34944C14.7058 7.96903 14.3854 7.64868 14.005 7.64868Z" fill="#007FFF"/>
<rect x="0.5" y="0.5" width="27" height="27" rx="13.5" stroke="#007FFF"/>
</svg>
